<?xml version="1.0" encoding="utf-8"?>
<!-- Generator: Adobe Illustrator 19.1.0, SVG Export Plug-In . SVG Version: 6.00 Build 0)  -->
<svg version="1.1" id="Layer_1" xmlns="http://www.w3.org/2000/svg" xmlns:xlink="http://www.w3.org/1999/xlink" x="0px" y="0px"
	 viewBox="0 0 153.9308 118.8066" style="enable-background:new 0 0 153.9308 118.8066;" xml:space="preserve">
<style type="text/css">
	.st0{fill:#51494A;}
</style>
<g>
	<path class="st0" d="M66.963,117.542c-1.527,0.0077-15.1706-0.5512-15.1945-1.2639c-0.0154-0.459,13.6039-1.4581,15.0999-1.5387
		c0.3841-0.0207,0.3865-0.6208,0-0.6c-5.5468,0.2988-11.0458,0.92-16.5196,1.8627c-0.2834,0.0488-0.2895,0.5353,0,0.5786
		c5.5186,0.8264,11.0208,1.5896,16.6142,1.5613C67.349,118.14,67.3498,117.54,66.963,117.542z"/>
	<path class="st0" d="M67.7489,109.808c-2.8416-1.1274-5.6484-2.3306-8.4077-3.647c-0.6272-0.2992-6.1262-2.6819-6.1473-2.8894
		c0.0328,0.3215,6.5713,1.4406,7.1796,1.5889c2.7791,0.678,5.5361,1.4349,8.2806,2.2414c0.3712,0.1091,0.5297-0.4698,0.1595-0.5786
		c-5.4933-1.6143-11.0433-2.9683-16.663-4.065c-0.3181-0.0621-0.5455,0.3754-0.2312,0.5483
		c5.0723,2.7905,10.2897,5.2453,15.67,7.3801C67.9484,110.529,68.1042,109.949,67.7489,109.808z"/>
	<path class="st0" d="M61.7279,89.6661c-0.2583-0.1667-0.5552,0.1586-0.4105,0.4105c2.7679,4.8188,6.3932,8.9759,10.0789,13.1056
		c0.2577,0.2886,0.6808-0.1369,0.4243-0.4243c-3.3498-3.7532-6.6445-7.541-9.2842-11.827c4.2737,2.8304,8.3465,5.9236,12.2009,9.31
		c0.2891,0.254,0.715-0.1688,0.4243-0.4243C70.9325,96.101,66.458,92.7192,61.7279,89.6661z"/>
	<path class="st0" d="M82.3168,84.8294c0.1194,1.3746,0.2225,2.7508,0.3107,4.1277c0.2059,3.214,0.3157,6.4308,0.3656,9.6508
		c0.006,0.3857,0.606,0.3869,0.6,0c-0.0928-5.9844-0.4523-11.9461-1.0793-17.8982c-0.0399-0.3789-0.5782-0.3925-0.6,0
		c-0.3366,6.0613-2.7209,11.7824-2.4308,17.8973c0.0182,0.3845,0.6183,0.3867,0.6,0c-0.1541-3.2483,0.4048-6.3358,1.0957-9.4976
		c0.2859-1.3087,0.8285-2.9327,1.1175-4.5018C82.3026,84.6816,82.3105,84.7554,82.3168,84.8294z"/>
	<path class="st0" d="M100.7971,88.2726c-4.0407,4.1231-8.0986,8.2236-12.4543,12.0174c-0.2917,0.2541,0.1342,0.677,0.4243,0.4243
		c3.649-3.1783,7.0867-6.5745,10.4826-10.0162c-2.6038,4.1036-5.2076,8.2072-7.8114,12.3109
		c-0.2075,0.327,0.3115,0.6283,0.5181,0.3028c3.104-4.8919,6.208-9.7838,9.312-14.6757
		C101.4517,88.3471,101.0345,88.0304,100.7971,88.2726z"/>
	<path class="st0" d="M94.9191,107.7686c1.1672-0.4236,10.7166-3.7131,13.7493-5.0251c-2.8257,1.6707-11.2531,6.9316-12.3051,7.6606
		c-0.3152,0.2184-0.0156,0.7388,0.3029,0.5181c4.6048-3.1909,9.3354-6.1711,14.2018-8.9469
		c0.2874-0.1639,0.0956-0.667-0.2311-0.5483c-5.2924,1.921-10.5848,3.8421-15.8772,5.7631
		C94.3994,107.3207,94.555,107.9008,94.9191,107.7686z"/>
	<path class="st0" d="M112.9558,115.4055c-5.7036-0.7819-11.4201-1.2166-17.1772-1.2966c-0.3862-0.0054-0.3864,0.5946,0,0.6
		c2.6402,0.0367,5.2774,0.1284,7.9118,0.312c2.1588,0.1504,5.123-0.0212,7.1552,0.6337c1.45,0.4672-1.5324,0.3578-2.1512,0.4501
		c-1.8031,0.2689-3.6138,0.4856-5.4263,0.6797c-2.7609,0.2957-5.5289,0.5203-8.296,0.749c-0.3821,0.0316-0.3854,0.6318,0,0.6
		c6.0261-0.4978,12.0341-1.0419,17.9837-2.1492C113.2356,115.9319,113.2487,115.4456,112.9558,115.4055z"/>
	<path class="st0" d="M87.5434,111.3179c-1.3775-1.2911-4.269-4.0649-6.1824-4.1086c-1.5002-0.0342-5.2454,2.1005-6.4412,2.9323
		c-2.5848,1.798-3.9267,4.6256-5.0077,7.4862c-0.1366,0.3616,0.4432,0.5179,0.5786,0.1595
		c0.8863-2.3454,1.9133-4.7346,3.8457-6.4382c1.7734-1.5636,5.4864-3.6954,8.0197-3.0024c4.1733,1.1417,7.912,6.4207,9.1336,10.2515
		c0.1168,0.3665,0.6964,0.2098,0.5786-0.1595C91.1801,115.6534,89.6822,113.3223,87.5434,111.3179z"/>
	<path class="st0" d="M69.9702,109.106c0.4944,0.4402,0.9887,0.8804,1.4831,1.3206c0.2875,0.256,0.7134-0.1669,0.4243-0.4243
		c-0.4944-0.4402-0.9887-0.8804-1.4831-1.3206C70.1069,108.4257,69.6811,108.8486,69.9702,109.106z"/>
	<path class="st0" d="M73.7724,108.3074c-0.7187-0.7482-1.4373-1.4965-2.1559-2.2447c-0.268-0.279-0.692,0.1456-0.4243,0.4243
		c0.7187,0.7482,1.4373,1.4965,2.1559,2.2447C73.6161,109.0107,74.04,108.5861,73.7724,108.3074z"/>
	<path class="st0" d="M74.1813,103.7827c0.715,0.9359,1.3137,1.95,2.0234,2.8844c0.2306,0.3035,0.7519,0.0049,0.5181-0.3028
		c-0.7098-0.9344-1.3085-1.9485-2.0235-2.8845C74.4681,103.1771,73.9467,103.4756,74.1813,103.7827z"/>
	<path class="st0" d="M79.1529,104.1789c-0.3491-1.0654-0.7443-2.1066-1.2443-3.111c-0.1721-0.3457-0.6898-0.0421-0.5181,0.3029
		c0.4772,0.9587,0.8508,1.951,1.1838,2.9677C78.694,104.7037,79.2736,104.5474,79.1529,104.1789z"/>
	<path class="st0" d="M81.2751,100.4094c-0.0425,1.037-0.0125,2.0693,0.0901,3.1021c0.0378,0.3806,0.6382,0.3845,0.6,0
		c-0.1025-1.0328-0.1326-2.0651-0.0901-3.1021C81.8908,100.0233,81.2908,100.024,81.2751,100.4094z"/>
	<path class="st0" d="M84.5427,104.5862c0.3228-1.2751,0.536-2.5652,0.6459-3.8757c0.0322-0.3848-0.5679-0.3826-0.6,0
		c-0.1055,1.2576-0.3149,2.4931-0.6245,3.7162C83.8694,104.8012,84.4478,104.9609,84.5427,104.5862z"/>
	<path class="st0" d="M86.4206,106.0582c0.5044-1.0987,1.0087-2.1974,1.5131-3.2961c0.16-0.3485-0.357-0.6537-0.5181-0.3029
		c-0.5044,1.0988-1.0088,2.1974-1.5131,3.2961C85.7425,106.1038,86.2595,106.4091,86.4206,106.0582z"/>
	<path class="st0" d="M88.666,107.3889c0.5889-0.7757,1.1778-1.5515,1.7667-2.3272c0.2334-0.3076-0.2874-0.6068-0.5181-0.3029
		c-0.5889,0.7758-1.1778,1.5515-1.7667,2.3273C87.9145,107.3936,88.4353,107.6929,88.666,107.3889z"/>
	<path class="st0" d="M91.7607,107.0965c-0.6984,0.6027-1.3967,1.2053-2.0952,1.808c-0.2928,0.2527,0.1332,0.6755,0.4243,0.4243
		c0.6984-0.6027,1.3967-1.2053,2.0951-1.8079C92.4778,107.2681,92.0518,106.8453,91.7607,107.0965z"/>
	<path class="st0" d="M91.1955,111.5352c0.6437-0.5966,1.3187-1.1518,2.0309-1.6648c0.3105-0.2236,0.0113-0.7443-0.3029-0.5181
		c-0.7533,0.5425-1.4714,1.1274-2.1523,1.7586C90.4875,111.374,90.9125,111.7975,91.1955,111.5352z"/>
	<path class="st0" d="M93.7774,113.1162c-0.5336,0-1.0673,0-1.6009,0c-0.386,0-0.3867,0.6,0,0.6c0.5336,0,1.0673,0,1.6009,0
		C94.1635,113.7162,94.1642,113.1162,93.7774,113.1162z"/>
	<path class="st0" d="M70.0818,112.7988c-0.3824-0.3579-0.8197-0.5873-1.3376-0.6768c-0.3777-0.0652-0.5399,0.5128-0.1595,0.5786
		c0.419,0.0724,0.7599,0.2297,1.0729,0.5225C69.9392,113.4867,70.3644,113.0632,70.0818,112.7988z"/>
	<polygon class="st0" points="132.7636,14.3802 132.0566,13.6732 81.6523,64.0775 31.248,13.6732 30.541,14.3802 80.9453,64.7845 
		30.541,115.1888 31.248,115.8958 81.6523,65.4915 132.0566,115.8958 132.7636,115.1888 82.3593,64.7845 	"/>
	<path class="st0" d="M78.868,20.9567c0.5463,0.5581,2.4534,0.2769,3.1609,0.3131c1.5548,0.0796,3.0786,0.0847,4.6215-0.1237
		c0.0591,0.0029,0.113-0.007,0.1557-0.0356c0.1166-0.0511,0.1556-0.1646,0.1319-0.2792c-0.0002-0.006-0.0013-0.0116-0.0019-0.0176
		c-0.0007-0.0028-0.0012-0.0056-0.002-0.0084c-0.0126-0.1055-0.0739-0.205-0.2034-0.2463c-4.0622-1.2961-6.8149-4.1813-7.5894-8.415
		c-0.0499-0.2725-0.3599-0.2635-0.5063-0.0981c-0.0758,0.046-0.1318,0.1232-0.1289,0.2406c0.0445,1.8191,0.089,3.6382,0.1335,5.4573
		C78.6573,18.4672,78.3094,20.3859,78.868,20.9567z M79.1572,14.3779c1.1004,2.926,3.2717,5.0602,6.2152,6.3005
		c-0.8907,0.0614-1.7798,0.0628-2.6801,0.0253c-1.3057-0.0545-3.0175,0.266-3.4111-1.2545c-0.2605-1.0063-0.0579-2.37-0.0834-3.4109
		C79.1843,15.4849,79.1707,14.9314,79.1572,14.3779z"/>
	<path class="st0" d="M57.8043,19.2247l-0.0004,0.0002c-0.1521-0.0028-0.3116,0.0926-0.3221,0.2878
		c-0.0616,1.1418-0.1232,2.2838-0.1848,3.4256c-0.0084,0.1563,0.1443,0.3077,0.3,0.3c3.4086-0.1694,5.0683,6.9722,6.0153,9.3162
		c1.3153,3.2556,2.5327,6.5474,3.7015,9.858c0.064,0.1812,0.2415,0.2324,0.3865,0.1924c0.8947,0,1.7894,0,2.6841,0
		c0.15,0.168,0.46,0.1789,0.5-0.0963c0.5273-3.6204,1.8328-6.827,3.2522-10.1745c0.9445-2.2274,1.5363-4.7232,2.5829-6.8669
		c0.7282-1.4917,2.468-3.0923,4.3201-2.3226c1.9628,0.8157,1.8767,3.1872,1.9446,4.8691c0.1189,2.9429,1.6324,10.0742-2.3083,11.033
		c-0.0155,0.0038-0.5817,0.2056-0.5817,0.2056v0.0016c-0.1124,0.0331-0.2068,0.123-0.2114,0.2736
		c-0.0273,0.9136-0.0546,1.8272-0.082,2.7408c-0.0062,0.2064,0.1618,0.2987,0.3218,0.2845
		c0.0203,0.0039,0.0287,0.0222,0.0518,0.0221c6.5185-0.0347,13.0308,0.126,19.5218-0.5891c0.1608-0.0178,0.3007-0.1231,0.3-0.3
		c-0.0097-2.6576-0.0053-5.3149,0.0119-7.9725c0.001-0.1622-0.1383-0.3-0.3-0.3c-0.7527,0-1.5055,0-2.2582,0
		c-0.3235,0-0.3598,0.4026-0.1409,0.5392c-0.3853,3.9733-3.5216,4.854-7.0156,5.0236c-0.0282-2.2347-0.033-4.7695-0.014-6.9937
		c0.0128,0.0062,0.0212,0.0157,0.0355,0.0206c0.763,0.2579,1.7224,0.1376,2.2492,0.8523c0.4659,0.632,0.9392,1.4845,0.9392,2.2701
		c0,0.1945,0.22,0.4105,0.3673,0.424c1.603,0.1469,1.7592-0.0532,1.6166-1.5754c-0.2239-2.3888-0.1432-4.7761,0.1716-7.1526
		c0.0214-0.1613-0.1547-0.2999-0.3-0.3c-0.5765-0.0005-1.153-0.0011-1.7296-0.0016c-0.1568-0.0001-0.233,0.1049-0.2625,0.2224
		c-0.0124,0.0236-0.0266,0.045-0.0331,0.0756c-0.1866,0.8742-0.5001,1.7474-1.0306,2.4763
		c-0.5567,0.7648-1.4341,0.7706-2.2856,0.7007c0.0311-2.1714,0.0621-5.1574,0.0933-7.3728c0-0.0391,0.0212-0.0558,0.0381-0.0558
		c1.5178-0.001,3.1617-0.0297,4.52,0.7587c1.4044,0.8153,1.9193,2.3078,2.2027,3.8124c0.3174,1.6853,0.7432,1.2809,2.4779,1.1337
		c0.3244-0.0275,0.3727-0.4615,0.1447-0.5726c0-2.3693,0-4.7385,0-7.1078c0-0.3103-0.3743-0.3593-0.5265-0.1706
		c-2.5132,0.0533-4.7127,0.1067-7.0519,0.16c3.5322-1.3864,6.2463-4.309,7.1011-8.1259c0.0207-0.0925,0.0007-0.1716-0.0415-0.2332
		c0.0183-0.0288,0.0344-0.0608,0.0423-0.1019c0.9142-4.7408-1.0289-10.1593-6.1176-11.5418
		c-6.5944-1.7916-13.2636,3.1451-14.3888,9.6456c-0.0042,0.0244,0.0009,0.045,0.0018,0.0676
		c-0.6508,0.139-1.3328,0.1682-1.9921,0.1078c-0.2872-0.0263-0.3582,0.3021-0.2164,0.4844c0.1613,2.571-0.4237,4.5554-2.4091,6.3311
		c-1.1747,1.0506-2.3262,1.761-3.9845,1.7944c-0.969,0.0195-1.9162-0.1005-2.8834-0.0496
		c-0.009-3.6826,0.0715-7.4451-0.2337-11.1173c0.038-0.5718,0.1407-1.1405,0.1407-1.7131c0-2.0317,1.0109-1.9612,2.2075-3.4979
		c0.5071-0.6513,0.4033-1.4327,0.4786-2.3055c0.0142-0.1642-0.149-0.2966-0.3-0.3c-3.8578-0.0871-7.7134,0.0871-11.5712,0
		c-0.1607-0.0037-0.302,0.1404-0.3,0.3c0.0065,0.514,0.0129,1.028,0.0194,1.542c0.0022,0.1729,0.1364,0.2855,0.3,0.3
		c2.0596,0.1827,2.4201,3.103,2.5012,4.5137c0.0685,1.1935,0.088,2.3941,0.1318,3.5885
		C60.4803,12.4065,61.4817,18.9266,57.8043,19.2247z M61.081,16.8174c0.7363-3.2526-0.0002-7.5448-0.2375-10.8543
		c-0.067-0.9351-0.0427-2.036-0.5284-2.8764c-0.4113-0.7115-0.7606-0.7153-1.1315-1.0081c-0.116-0.0916-0.8186-0.1662-0.8165-0.7067
		c0.0036-0.9427,1.4551-0.6591,2.2905-0.7091c2.0088-0.1202,4.5076-0.3665,6.4789-0.0729c3.5455,0.528,0.4102,1.6728-0.3433,3.1576
		c-0.3489,0.6875-0.3737,1.6245-0.4587,2.381c-0.0425,0.3784-0.1937,1.8675-0.1528,2.1308c0.0052,0.0338,0.0975,2.475,0.1207,3.4336
		c0.0611,2.5226,0.1147,5.0458,0.1248,7.5691c0.0001,0.0102,0.0092,0.0133,0.01,0.0229c-0.0069,0.1553,0.0861,0.3061,0.2848,0.2872
		c1.4908-0.142,3.0477,0.2542,4.5175-0.064c1.2317-0.2665,2.1631-1.0496,3.0801-1.8698c2.0901-1.8694,2.7379-3.9016,2.5901-6.6197
		c0.678,0.0273,1.3704-0.0306,2.022-0.2039c0.2251-0.0599,0.2543-0.2935,0.1616-0.4482c1.0645-6.0933,7.4222-10.9584,13.647-9.2104
		c4.7231,1.3264,6.5569,6.3527,5.6985,10.8038c-0.0176,0.0912,0.0041,0.169,0.0463,0.2304
		c-0.0202,0.0292-0.0377,0.0624-0.0471,0.1047c-0.9503,4.2435-4.2774,7.3014-8.4698,8.264
		c-0.0549,0.0126-0.0952,0.0376-0.1282,0.0675c-0.2619,0.0057-0.5206,0.0114-0.7894,0.017c-0.3856,0.0081-0.3869,0.6082,0,0.6
		c3.4979-0.0738,6.3714-0.1477,9.8433-0.2216c0,2.2357,0,4.4714,0,6.7071c-0.5453,0.0796-1.1001,0.1601-1.3494-0.1964
		c-0.2489-0.3559-0.2172-1.2113-0.3456-1.6523c-0.2461-0.8448-0.6096-1.6588-1.2239-2.303
		c-1.4919-1.5647-3.8221-1.6121-5.8262-1.6108c-0.0636,0.0001-0.6299,0.0093-0.634,0.2897
		c-0.033,2.2701-0.0991,5.5938-0.0991,7.8641c0,0.3118,0.2572,0.4449,0.4016,0.4583c0.9463,0.087,1.9838,0.1146,2.7042-0.6085
		c0.7278-0.7305,1.1293-1.8586,1.355-2.8524c0.8159-0.0118,1.0497-0.0394,1.0313,0.942c-0.0175,0.9335-0.1439,1.8639-0.1522,2.801
		c-0.0073,0.8317,0.0192,1.6628,0.0798,2.4923c0.022,0.3018,0.2336,1.4791-0.1166,1.6006
		c-0.2112,0.0577-0.4252,0.0565-0.6404,0.0254c-0.1035-0.9006-0.5427-1.8927-1.1151-2.582c-0.6481-0.7806-1.48-0.6339-2.367-0.9337
		c-0.1573-0.0532-0.5175,0.0486-0.6116,0.1707c-0.1778,0.2305-0.3011,0.3904-0.3036,0.6588l0.0164,7.0695
		c0.004,0.286,0.2284,0.22,0.5023,0.22c1.9297-0.083,4.0091-0.1982,5.6238-1.3885c1.3651-1.0063,1.9142-2.5254,2.078-4.1484
		c1.9818,0.2875,1.4883,2.5426,1.4875,4.291c-0.0017,3.5171-1.8649,3.3265-4.9105,3.4811c-4.6846,0.2377-9.3801,0.137-14.069,0.1577
		c0.0226-0.7559,0.0452-1.5117,0.0677-2.2676l0.3579-0.0821c4.3103-1.0488,2.9646-5.0329,2.8503-8.7565
		c-0.0796-2.5943,1.2706-7.8983-2.0724-8.3153c-3.2282-0.4027-4.3726-0.2341-5.4724,2.7541
		c-2.0046,5.4468-4.8491,10.9225-5.7703,16.6973c-0.855,0-1.7101,0-2.5651,0c-1.9597-5.5638-3.8729-11.4247-6.4753-16.7182
		c-0.8556-1.7404-2.1524-2.3583-3.2566-2.7333c-0.0625-0.5625-0.0482-1.6788,0.0068-2.9519
		C59.7665,19.4217,60.6884,18.5512,61.081,16.8174z"/>
	<path class="st0" d="M68.9958,28.9868c0.5737,1.5328,1.1169,3.0732,1.608,4.6341c-0.0439,0.1413,0.0166,0.249,0.1143,0.3079
		c0.1582,0.2822,0.6541,0.1285,0.5466-0.218c-0.0093-0.0302-0.0209-0.0596-0.0303-0.0897c1.0425-3.0937,2.0849-6.1874,3.1274-9.2811
		c0.0532-0.1577-0.1533-0.381-0.1701-0.4082c-0.3292-0.532-1.5231-1.3232-1.7414-1.4012c-0.0158-0.2753-0.0316-0.5505-0.0475-0.8258
		c0.0045,0.0082-0.0411-0.3616-0.053-0.4777c-0.0205-0.0944-0.1157-0.1773-0.2042-0.2002c-0.8351-0.2158-1.8223-0.1311-2.678-0.1547
		c-0.1641-0.0045-0.2974,0.1412-0.3,0.3c-0.0264,1.5809-0.6997,1.1833-1.4136,2.2433c-0.322,0.478-0.3481,0.9574-0.2806,1.5178
		C67.6311,26.2432,68.532,27.7472,68.9958,28.9868z M69.6765,22.6572c0.2719-0.565-0.0872-0.9391,0.6844-1.2233
		c1.1603-0.4272,1.0106,0.7804,1.3209,1.1895c0.5154,0.6793,1.4758,0.7776,1.9917,1.6113c0.0192,0.031,0.0433,0.0513,0.0673,0.0716
		c-0.9409,2.7922-1.8818,5.5844-2.8227,8.3766c-0.6073-1.8478-1.251-3.6822-1.9638-5.493
		C67.4431,23.3504,69.6652,22.6807,69.6765,22.6572z"/>
	<path class="st0" d="M72.3498,21.227c0.0007,0.0034,0.0048,0.0059,0.0053,0.0093C72.3453,21.1728,72.3454,21.1832,72.3498,21.227z"
		/>
	<path class="st0" d="M86.8586,16.2581c1.6636-0.9506,3.0063-2.4914,4.3251-3.8502c1.4386-1.4825,3.1096-3.0139,4.0828-4.8654
		c0.658-1.2516,0.9664-2.9232-0.2188-3.9896c-1.3999-1.2595-3.1181,0.0566-4.3168,0.951c-3.0647,2.2867-5.734,5.2326-8.1781,8.1609
		c-0.0022,0.0026-0.0024,0.0056-0.0045,0.0082c-0.0143,0.0172-0.0307,0.0299-0.0424,0.0525
		C80.6963,16.2258,83.7334,18.0439,86.8586,16.2581z M83.0176,13.0423c0.9841-1.1766,2.0146-2.3173,3.0706-3.4295
		c0.9509-1.0015,1.9266-1.9828,2.9493-2.9114c0.5037-0.4573,1.0159-0.9076,1.549-1.3307c1.5775-1.2523,2.7569-2.3136,3.959-1.074
		c0.3765,0.3882,0.8145,1.9655,0.0108,3.2946c-0.2014,0.335-0.4262,0.6528-0.6746,0.9534
		c-0.3511,0.4576-0.7391,0.8846-1.1241,1.3135c-0.8658,0.9645-1.7676,1.8987-2.6791,2.8199
		c-0.6874,0.6948-1.3715,1.4268-2.1214,2.0566c-0.4281,0.3845-0.8952,0.7196-1.4012,1.0053c-1.0383,0.946-2.45,0.78-3.2219,0.0948
		C82.5645,15.1519,82.2765,14.4841,83.0176,13.0423z"/>
	<path class="st0" d="M153.5,70.6594c0.1753-0.0045,0.3654-0.1914,0.2892-0.3798c-1.0133-2.5093-2.8527-6.7308-6.1121-4.942
		c-0.213,0.1169-0.1738,0.3929,0,0.5181c1.1025,0.7942,1.426,0.8091,2.3329,2.1186c2.1219,3.0637,0.0223,3.2697-2.0079,5.4321
		c0.1689-0.1799,0.0582-0.5255-0.2121-0.5121c-1.5576,0.0767-3.1941-1.8319-3.4271-2.1284c-0.6096-0.7755-1.317-1.5616-2.0914-2.173
		c-0.1703-0.1345-2.8484-5.5245-4.8244-6.9074c-0.1918-0.1343-0.4282-0.0828-0.5014,0.1324
		c-0.6708,1.9719-2.4176-1.3676-1.0668-0.5255c0.1795,0.1119,0.4756-0.0303,0.4514-0.2591c-0.3929-3.7238,3.5907-4.9067,4.7-7.9005
		c0.0769-0.2075-0.1622-0.4446-0.369-0.3691c-3.9798,1.4548-2.3694-6.0967-6.9564-2.4393c-2.3796,1.8973-4.155,3.4028-7.3463,4.1154
		c-3.8342,0.856-7.8682,0.694-11.769,0.7499c-5.3903,0.0772-10.798,0.2611-16.1874,0.4329
		c-0.1214,0.0038-0.2666,0.0895-0.2893,0.2202c-0.8373,4.8234-1.1743,10.3433-0.6718,15.2158c0.0157,0.1525,0.1249,0.3121,0.3,0.3
		c4.1376-0.2851,8.2845-0.0012,12.421-0.2945c3.2712-0.2319,6.5457-0.4566,9.814-0.7256c2.3691-0.1951,5.1501-0.8755,7.4824-0.3375
		c3.556,0.8204,2.5977,4.1247,5.4059,5.5338c-0.1364-0.0685,1.2144,0.1107,1.3145-0.0359c0.042,0.067,0.0929,0.1499,0.1643,0.2711
		c0.5729,0.9724,0.5211,3.1258,0.6245,4.1804c0.023,0.2346,0.3251,0.4263,0.5121,0.2122c0.2516-0.288,1.171-1.6542,0.6036-0.6553
		c-0.103,0.1813-0.0007,0.372,0.1793,0.4407c0.8495,0.324,1.0761,0.3209,1.727-0.2131c0.5587-0.4583,0.2176-3.1277,1.2726-2.0083
		c0.1205,0.1279,0.3,0.098,0.4243,0c0.5829-0.4597,1.8574-2.5744,2.4771-2.6342c0.6002-0.0578,0.3955,2.2328,0.1805,3.2912
		c-0.0493,0.2428,0.2054,0.4865,0.4407,0.3388c0.6995-0.4391,5.3292-2.517,5.3983-2.8934
		c-0.0031,0.0169,0.0013,0.0309,0.0007,0.0469c-0.0017,0.0234-0.0029,0.0461,0.0011,0.0688
		c0.0025,0.0135,0.0068,0.0256,0.0109,0.0382c0.0007,0.0022,0.0012,0.0044,0.0019,0.0066c0.0075,0.0225,0.0145,0.0415,0.0269,0.0615
		c0.0021,0.0035,0.0049,0.0066,0.0072,0.0101c0.0024,0.0034,0.0046,0.0065,0.007,0.0098c0.0208,0.0298,0.0449,0.0552,0.0735,0.0769
		c0.0099,0.007,0.0173,0.0142,0.0279,0.0201c0.0496,0.0302,0.1046,0.0444,0.1622,0.0404c0.004-0.0002,0.0073-0.0014,0.0112-0.0018
		c0.0045-0.0005,0.0089-0.0014,0.0134-0.0022c0.0032-0.0002,0.006-0.0013,0.0092-0.0015c0.0181-0.0038,0.0358-0.0062,0.0535-0.0144
		c0.0565-0.0172,0.1041-0.0533,0.1362-0.1118c0.0038-0.0041,0.0076-0.0082,0.0114-0.0122c0.0854-0.0915,0.0938-0.1967,0.0635-0.2893
		c0.0053-0.029,0.0107-0.058,0.016-0.087c0.0227-0.1235-0.0283-0.2166-0.11-0.2888c1.1955-0.4645,4.0797-0.244,4.8771-1.1851
		C153.9997,73.7239,154.1206,70.6436,153.5,70.6594z M134.1041,75.3826C134.058,75.335,134.0327,75.2774,134.1041,75.3826
		L134.1041,75.3826z M153.1685,73.7117c-0.2983,0.424-2.3823,0.7255-2.886,0.923c-0.4401,0.1725-1.218,0.3314-1.7005,0.6776
		c-1.4886-0.532-3.6608,1.6844-4.8975,2.1542c-0.3291,0.125-0.5146,0.2663-0.6146,0.3785c0.0344-0.1635,0.054-0.4384,0.0083-0.8685
		c-0.111-1.0459,0.1674-2.1405-0.1409-3.17c-0.059-0.1969-0.3533-0.3169-0.5014-0.1324c-0.5689,0.7087-1.1093,1.7855-1.8113,2.3116
		c0.1014-0.076-1.5587,0.8141-1.488,0.7503c-0.103,0.0928-0.5472-0.2924-0.8525,0.0079c-0.7421,0.7303-0.7735,3.7135-1.6271,1.7071
		c-0.0992-0.2332-0.4-0.1534-0.5181,0c-1.1182,1.4532-0.4921,0.9446-0.8051-0.3655c-0.2855-1.1952-0.3007-2.4383-0.7172-3.6062
		c-0.0873-0.2447-0.403-0.296-0.5483-0.0717c-1.314,2.028-3.4061-3.7957-4.1941-4.4011c-2.2372-1.7188-6.9774-0.5153-9.4236-0.3116
		c-4.4836,0.3732-9.0134,0.8522-13.5126,0.9344c-1.7228,0.0314-3.4484-0.0245-5.1717-0.0066
		c-0.6551,0.0068-2.6026,0.4168-3.2168,0.0801c-0.9794-0.537-0.3026-0.3678-0.6063-1.5246
		c-0.4238-1.6147,0.0625-4.0936,0.1382-5.7247c0.0708-1.5251-0.2697-4.2919,0.3801-5.6938c0.9983-2.1536,2.5727-1.5969,4.961-1.6354
		c2.3445-0.0378,4.6827-0.1056,7.0247-0.2106c4.8693-0.2184,9.8264,0.1229,14.6575-0.6409
		c2.1516-0.3403,4.6548-0.9086,6.4939-2.1861c0.3139-0.2181,4.5065-4.3219,4.6824-2.2582c0.0109,0.1277,0.085,0.2587,0.2202,0.2893
		c0.8094,0.4574,1.0222,0.9883,0.6381,1.5927c-0.0478,0.1212,0.0319,0.2775,0.1379,0.3388c2.0775,1.2025,2.9225,0.4686,1.034,2.7352
		c-0.2258,0.2709-4.0245,3.8086-2.7402,4.6091c-0.0884-0.0551-0.2144-0.0551-0.3029,0c-0.2379,0.0822-0.4758,0.1644-0.7137,0.2467
		c-0.1886,0.0446-0.2755,0.2789-0.1793,0.4407c0.7419,1.2479,1.1449,1.7535,2.3949,2.477c0.1504,0.087,0.315,0.0244,0.4105-0.1077
		c1.3297-1.8376,4.2218,5.514,5.8389,6.6978c0.0852,0.0624,0.5857,0.6637,0.7009,0.8189c0.4169,0.5621,2.2365,3.7418,3.3974,2.5054
		c-0.1351,0.1439-0.1061,0.3662,0.0607,0.4712c2.2599,1.4211,4.4615-2.1301,4.4821-4.1586
		c0.0148-1.4637-1.0667-2.1686-1.3685-3.2959c-0.0144-0.0539-1.041-0.5162-1.0995-0.4371c1.7289-2.3386,3.4529,4.0291,3.9175,4.0173
		c-0.1557,0.0039-0.3087,0.1343-0.3,0.3C152.8614,71.3514,153.7562,72.8766,153.1685,73.7117z"/>
	<path class="st0" d="M43.2639,77.4951c0.9009-0.0242,1.5121-0.9079,1.9374-1.288c0.3687-0.3294-0.2603,0.8504-0.403,1.1429
		c-0.1282,0.2627,0.1364,0.5648,0.4105,0.4105c1.2347-0.6951,2.3-2.5351,3.0543-3.6446c0.6441-0.9473,1.2023-1.919,1.745-2.9254
		c0.0667-0.1238,0.1799-0.4509,0.2776-0.7503l0.0106,0.0049c-0.0193,0.0659-0.0375,0.1282-0.0607,0.2074
		c-0.0492,0.1686,0.0933,0.4044,0.2893,0.3798c1.1386-0.1435,5.4542-2.2917,5.7015-1.5905
		c0.0319,0.0903,0.1047,0.1949,0.2095,0.2095c1.3353,0.186,2.3979-1.7727,2.1584-2.9511c-0.0466-0.2298-0.3477-0.2785-0.5014-0.1324
		c-0.2648,0.2516-0.4716-0.2997-0.5781-0.4387c-0.1281-0.1672-1.6721,0.5828-1.5189,0.2101
		c0.1318-0.3208,1.5248-1.191,1.5242-1.3229c-0.0015-0.2972-0.0029-0.3486-0.0044-0.6458
		c-0.0006-0.1263-0.0922-0.2608-0.2202-0.2893c-1.9582-0.4363-3.54-1.5261-0.6433-0.6819c0.3547,0.1033,0.2783-0.6701,0.4017-0.8771
		c0.1458-0.2444,1.2493,1.4838,2.036,1.1742c0.7868-0.3096,6.5364-1.7733,3.7847-5.1993c-0.0786-0.0978-0.2618-0.114-0.3636-0.0469
		c-0.0878,0.0578-0.8157,1.0941-1.5098,1.5725c0.0483-0.2621,0.179-0.5723,0.4432-0.7646c0.1923-0.1205,0.2756-0.3542,0.0801-0.474
		c-0.0796-0.0667-0.1592-0.1333-0.2388-0.2c0.2156-0.1282,0.1838-0.4869-0.0717-0.5483c-1.0348-0.2488-3.8262,0.1387-4.2233,0.2299
		c-0.1719-0.7175-0.349-1.4338-0.5276-2.1497c0.6326,0.6338,2.8932,1.5114,3.2672,1.4889c1.1985-0.0722,1.7925-1.3684,1.9866-1.386
		c0.1942-0.0176,0.8646,1.0942,0.9731,1.1751c0.2145,0.1599,0.5118-0.1043,0.4407-0.3388
		c-1.6896-5.5732-5.4551-5.5395-11.0579-5.1269c-10.3152,0.7598-20.48-0.0242-30.8124-0.0963
		c-0.0098-0.0001-0.0128,0.0087-0.0222,0.0094c-0.0108,0.0002-0.0209,0.0012-0.0316,0.0024
		c-0.0309,0.0025-0.0581,0.0073-0.0862,0.0219c-0.0288,0.0132-0.0538,0.0342-0.0768,0.0583c0,0-0.0004,0.0002-0.0005,0.0004
		c-0.0127,0.0134-0.0222,0.0303-0.0324,0.0472c-0.0024,0.0045-0.007,0.0042-0.0093,0.0089
		c-2.3369,4.9359-9.4109,6.5318-14.2193,8.4384c-2.793,1.1075-6.2705,2.0886-6.7775,5.4711
		c-0.0287,0.1918,0.0762,0.3763,0.2893,0.3798c1.6516,0.0266,13.2177-0.8837,14.4521-1.0087s5.6656-0.3755,8.0124,0.7246
		c3.0912,1.4491,1.3737,1.9632,3.5012,2.5357c3.4509,0.9286,6.1381,0.0317,9.0845,2.6786
		C37.387,73.0352,39.979,77.583,43.2639,77.4951z M27.3781,68.0409c-2.169-0.5964-1.7432-1.0567-3.1851-2.1133
		c-1.6529-1.2112-5.6326-1.3686-6.8368-1.4048s-11.9339,1.025-13.4277,1.1228s-2.2589-0.2013-2.0596-2.1197
		c0.8008-0.6941,1.4523-1.0555,2.4185-1.4742c1.6584-0.8152,3.4799-1.3135,5.1855-2.024c3.6362-1.5145,10.3749-3.0041,11.923-7.3766
		c0.0103-0.0124,0.0259-0.0123,0.0348-0.0271c0.0477-0.0792,0.0771-0.1341,0.0986-0.1866
		c8.1382,0.0767,16.3544,1.0414,24.4835,0.6276c3.0521-0.1553,6.0995-0.7541,9.1608-0.6879
		c2.8271,0.061,4.6779,0.5588,6.6879,2.6022c0.5735,0.583,0.9288,2.009,0.1105,0.4805c-0.1526-0.285-0.506-0.1181-0.559,0.1514
		c-0.579,2.9399-4.1581,0.3428-4.7226-0.4681c-0.1673-0.2403-0.549-0.1588-0.559,0.1514c-0.0164,1.1489-0.0759,2.2955-0.1783,3.4399
		c-0.0144,0.2048,0.2024,0.3281,0.3798,0.2892c1.1201-0.2455,3.6096-0.6157,3.9802-0.5591c0.3705,0.0565,0.5274,1.3898-0.0927,1.535
		c-0.2568,0.0601-0.2822,0.4334-0.0717,0.5483c0.2662,0.1453,0.5325,0.2905,0.7988,0.4357
		c0.1125,0.0614,0.2729,0.0529,0.3635-0.0469c0.0853-0.0939,0.6558-0.5331,0.5657-0.8588h0.0291
		c0.9977,1.2409-1.9744,3.5308-3.3975,3.16c-0.2906-0.0757-1.0591-1.3828-1.6116-1.6871c-0.0893-0.0491-0.2147-0.0607-0.3029,0
		c-0.1101,0.0758-0.2203,0.1516-0.3304,0.2274c-0.1088,0.0749-0.1774,0.205-0.1379,0.3388c0.373,1.2624-1.2109,0.1315-2.4972,0.152
		c-0.2885,0.0046-0.4202,0.4141-0.1514,0.559c0.0259,0.014,3.8569,1.8452,2.6018,2.1956c-0.1334,0.0373-0.2123,0.1561-0.2202,0.2893
		c-0.0405,0.6772-1.895,0.431-2.5022,0.5803c-0.2399,0.059-0.2643,0.3344-0.1324,0.5015c0.4802,0.6078,4.3759,1.1538,4.8086,0.9419
		c-0.0392,0.7294-0.7022,1.2766-1.4568,1.296c-0.0513-0.1454-0.2068-0.2653-0.369-0.2095c-0.717,0.2465-5.2235,1.8098-5.1497,1.5567
		c0.0396-0.1357-0.0288-0.2629-0.1378-0.3388c-0.2164-0.1506-0.4328-0.3012-0.6492-0.4518c-0.1791-0.1247-0.471,0.0393-0.4514,0.259
		c0.1253,1.4077-4.1151,7.4897-4.2133,7.4382c-0.0982-0.0516,0.8432-1.9102-0.1472-2.7747
		c-0.2028-0.1769-0.4915-0.0519-0.5121,0.2122c-0.4815,6.1424-7.0607-1.176-8.383-2.642c-1.7015-1.8864-3.0346-2.8334-5.5903-3.298
		C29.8238,68.1747,28.4905,68.3467,27.3781,68.0409z"/>
</g>
</svg>
