<?xml version="1.0" encoding="utf-8"?>
<!-- Generator: Adobe Illustrator 19.1.0, SVG Export Plug-In . SVG Version: 6.00 Build 0)  -->
<svg version="1.1" id="Layer_1" xmlns="http://www.w3.org/2000/svg" xmlns:xlink="http://www.w3.org/1999/xlink" x="0px" y="0px"
	 viewBox="-449 159 40 34" style="enable-background:new -449 159 40 34;" xml:space="preserve">
<style type="text/css">
	.st0{fill:#FFFFFF;}
</style>
<path class="st0" d="M-412.4044,190.0552c-5.2919-5.1024-10.6937-10.0819-16.1997-14.9435
	c4.6397-4.2922,9.3948-8.5319,13.6436-13.1874c0.3898-0.4271-0.2449-1.0654-0.6364-0.6364
	c-4.2659,4.6743-9.0724,8.8992-13.7008,13.2239c-5.1257-4.5092-10.3356-8.9232-15.6444-13.2239
	c-0.4461-0.3615-1.0868,0.2715-0.6364,0.6364c5.3009,4.2943,10.5031,8.7018,15.6215,13.204
	c-0.0989,0.0931-0.1992,0.1853-0.2979,0.2785c-5.1783,4.8869-10.1908,10.5132-16.4276,14.0431
	c-0.504,0.2853-0.051,1.0631,0.4542,0.7772c5.8199-3.294,10.438-8.3594,15.261-12.9109c0.5637-0.532,1.1322-1.0612,1.7015-1.59
	c5.5148,4.8686,10.9251,9.8554,16.225,14.9655C-412.6237,191.0938-411.9865,190.4582-412.4044,190.0552z"/>
</svg>
