<?xml version="1.0" encoding="utf-8"?>
<!-- Generator: Adobe Illustrator 19.1.0, SVG Export Plug-In . SVG Version: 6.00 Build 0)  -->
<svg version="1.1" id="Layer_1" xmlns="http://www.w3.org/2000/svg" xmlns:xlink="http://www.w3.org/1999/xlink" x="0px" y="0px"
	 viewBox="-590 379.4676 29.0535 36" style="enable-background:new -590 379.4676 29.0535 36;" xml:space="preserve">
<style type="text/css">
	.st0{fill:#FFFFFF;}
</style>
<g>
	<g>
		<path class="st0" d="M-589.685,384.3451c-0.0317,1.8791-0.003,3.7245,0.087,5.6016c0.01,0.2094,0.1709,0.3931,0.3909,0.3909
			c8.0983-0.0818,16.1966-0.1635,24.2949-0.2453c0.5027-0.0051,0.504-0.7869,0-0.7818c-4.6721,0.0472-9.3442,0.0943-14.0164,0.1415
			c-2.0596,0.0208-4.5208,0.4248-6.5409,0.066c-3.6364-0.6457-3.4945-1.5784-3.4339-5.173
			C-588.8948,383.8419-589.6766,383.8418-589.685,384.3451L-589.685,384.3451z"/>
	</g>
	<g>
		<path class="st0" d="M-587.1387,384.4682c4.849-0.533,9.701-0.8246,14.5809-0.7568c2.139,0.0297,4.7308-0.2133,6.8108,0.3003
			c3.596,0.888,3.8079,1.7756,3.7505,5.3263c-0.0081,0.5033,0.7736,0.5034,0.7818,0c0.0668-4.1298,1.4056-5.5703-2.591-5.9439
			c-7.782-0.7273-15.5703-0.5609-23.3329,0.2923C-587.6334,383.7408-587.6389,384.5231-587.1387,384.4682L-587.1387,384.4682z"/>
	</g>
	<g>
		<path class="st0" d="M-589.9058,391.8012c-0.0362,1.2414-0.0265,2.4821,0.0488,3.722c0.0296,0.4877-0.0969,1.3651,0.4255,1.6354
			c0.331,0.1713,0.8885,0.0091,1.2321-0.0093c0.7-0.0375,1.401-0.0542,2.1019-0.0516c0.6651,0.0025,2.1121,0.3855,2.6547-0.1014
			c0.4659-0.418,0.1069-1.3808,0.0416-1.9084c-0.0844-0.6816-0.1688-1.3631-0.2532-2.0447
			c-0.0518-0.4189-0.0177-0.9712-0.203-1.3563c-0.2807-0.5835-0.8683-0.4767-1.4694-0.5364c-1.326-0.1316-2.652-0.2633-3.978-0.3949
			c-0.5003-0.0497-0.4968,0.7324,0,0.7818c0.7367,0.0731,1.4733,0.1463,2.21,0.2194c0.6442,0.064,1.943-0.0393,2.3921,0.4121
			c0.432,0.4343,0.3595,1.6253,0.4353,2.2374c0.0446,0.36,0.3287,1.9044,0.2714,1.9769c-0.1326,0.1677-2.046-0.069-2.3351-0.0682
			c-0.3894,0.001-0.7788,0.009-1.168,0.0224c-0.277,0.0095-0.909,0.1774-1.1668,0.0581c-0.8886-0.4115-0.4848-3.6786-0.4581-4.5943
			C-589.1093,391.2979-589.8911,391.2984-589.9058,391.8012L-589.9058,391.8012z"/>
	</g>
	<g>
		<path class="st0" d="M-582.7482,391.2938c-0.0002,1.0461-0.0004,2.0922-0.0005,3.1383c-0.0001,0.586-0.2287,1.6414,0.0724,2.1528
			c0.179,0.304,0.3719,0.3327,0.697,0.3857c0.9037,0.1475,1.9554-0.0012,2.8665-0.0182c0.7618-0.0143,2.8371,0.3875,3.1298-0.6374
			c0.1882-0.659-0.1915-1.6573-0.2516-2.2915c-0.0779-0.8226,0.0717-1.811-0.1415-2.5997c-0.0346-0.128-0.1423-0.2416-0.2729-0.273
			c-1.3613-0.3274-3.1503-0.031-4.5497-0.023c-0.5029,0.0029-0.504,0.7847,0,0.7818c0.7973-0.0046,1.5945-0.0092,2.3918-0.0138
			c0.3713-0.0021,0.8441-0.0981,1.1959-0.0069c0.5501,0.1427,0.4134,0.2591,0.5127,0.7376
			c0.1524,0.7346,0.0878,1.5706,0.1909,2.3235c0.0497,0.363,0.1416,0.5394-0.0684,0.8658c-0.2783,0.4325-0.4998,0.3139-1.0345,0.329
			c-0.7347,0.0208-1.4697,0.0346-2.2047,0.0413c-0.294,0.0027-0.588,0.0043-0.882,0.0047c-0.2205,0.0005-0.441,0.0001-0.6615-0.0011
			c-0.2178,0.0726-0.2892,0.0036-0.2144-0.2068c-0.2333-0.4604,0.0064-1.6868,0.0065-2.2234
			c0.0002-0.8219,0.0003-1.6439,0.0005-2.4658C-581.9663,390.7908-582.7481,390.7899-582.7482,391.2938L-582.7482,391.2938z"/>
	</g>
	<g>
		<path class="st0" d="M-575.5827,391.3662c0.0005,1.9016,0.0009,3.8032,0.0014,5.7049c0,0.1949,0.1798,0.4131,0.3909,0.3909
			c1.2686-0.1334,2.5383-0.1866,3.8129-0.1258c0.5114,0.0244,1.6987,0.4183,2.1137-0.094c0.1292-0.1595,0.093-0.4007,0.1074-0.5873
			c0.0553-0.72,0.022-1.4557,0.0329-2.1781c0.0173-1.1416,0.232-2.4584,0.0213-3.5769c-0.0236-0.1252-0.1502-0.2464-0.273-0.273
			c-0.6107-0.1322-1.2872,0.0927-1.9077,0.119c-0.8732,0.037-1.7355-0.0192-2.6018-0.1294c-0.4977-0.0633-0.4931,0.719,0,0.7818
			c0.6284,0.08,1.2565,0.1383,1.8905,0.1435c0.4124,0.0034,1.5601-0.2845,1.8927-0.1122c0.5422,0.2809,0.2024,2.6394,0.1926,3.2892
			c-0.0057,0.3786,0.1819,1.5508,0.0365,1.828c0.1219,0.1624,0.0681,0.1992-0.1613,0.1104
			c-0.1488-0.0171-0.2979-0.0314-0.4472-0.0428c-0.2985-0.0257-0.5972-0.0456-0.8965-0.0599
			c-1.2747-0.0608-2.5445-0.0076-3.8129,0.1258c0.1303,0.1303,0.2606,0.2606,0.3909,0.3909
			c-0.0005-1.9016-0.0009-3.8032-0.0014-5.7049C-574.8011,390.8632-575.5828,390.8623-575.5827,391.3662L-575.5827,391.3662z"/>
	</g>
	<g>
		<path class="st0" d="M-568.488,391.2939c-0.0003,1.0515-0.0005,2.103-0.0008,3.1545c-0.0002,0.8067-0.1649,1.7805,0.0724,2.5484
			c0.0383,0.124,0.1392,0.2463,0.273,0.273c0.9639,0.1924,2.1249-0.032,3.1033-0.0891c0.632-0.0369,1.2637-0.0787,1.8951-0.1252
			c0.3573-0.0263,0.9866,0.0513,1.3003-0.1823c0.4888-0.364,0.2414-1.2027,0.2145-1.728c-0.069-1.3428-0.1379-2.6856-0.2068-4.0284
			c-0.0139-0.2709-0.2374-0.4225-0.4948-0.3769c-1.7661,0.3127-3.5196,0.3329-5.2917,0.0567
			c-0.4922-0.0767-0.7042,0.6765-0.2078,0.7538c1.9167,0.2987,3.797,0.2814,5.7073-0.0567
			c-0.1649-0.1256-0.3299-0.2513-0.4948-0.3769c0.0649,1.2638,0.1298,2.5276,0.1947,3.7914
			c0.0115,0.2241,0.1371,0.7468,0.0486,0.9479c-0.1819,0.4137-0.4036,0.342-0.7695,0.4177
			c-0.6712,0.1388-1.4509,0.1001-2.1321,0.1386c-0.5681,0.0321-1.3418,0.2095-1.8969,0.0928
			c-0.7201-0.1513-0.5334-0.7261-0.5333-1.3807c0.0003-1.2768,0.0007-2.5536,0.001-3.8305
			C-567.7061,390.7909-568.4879,390.79-568.488,391.2939L-568.488,391.2939z"/>
	</g>
	<g>
		<path class="st0" d="M-589.9155,398.5324c0.0183,1.8996-0.0098,3.7978-0.0843,5.696c-0.0075,0.192,0.1863,0.417,0.3909,0.3909
			c1.2407-0.1586,2.4847-0.2402,3.7357-0.2123c0.5534,0.0123,1.7202,0.356,2.1851-0.1243c0.5168-0.534,0.2037-1.8376,0.2032-2.4875
			c-0.0008-1.0509,0.283-2.5223-0.0682-3.5068c-0.0638-0.1788-0.1929-0.2677-0.3769-0.287
			c-0.7541-0.079-1.5957,0.1239-2.3614,0.1484c-0.9081,0.0291-1.8145,0.0078-2.7215-0.041c-0.5027-0.0271-0.5012,0.7548,0,0.7818
			c0.9068,0.0488,1.8135,0.0689,2.7215,0.041c0.7582-0.0233,1.6112-0.2271,2.3614-0.1484c-0.1256-0.0957-0.2513-0.1913-0.3769-0.287
			c0.2706,0.7588,0.0393,2.0232,0.0399,2.8336c0.0004,0.5273,0.2625,2.0373-0.0663,2.3791
			c-0.1797,0.1868-2.278-0.0924-2.6414-0.0835c-0.8824,0.0215-1.7588,0.1003-2.6341,0.2122
			c0.1303,0.1303,0.2606,0.2606,0.3909,0.3909c0.0745-1.8982,0.1026-3.7965,0.0843-5.696
			C-589.1386,398.0296-589.9204,398.0284-589.9155,398.5324L-589.9155,398.5324z"/>
	</g>
	<g>
		<path class="st0" d="M-582.8023,398.7488c-0.0241,1.817-0.0273,3.6337-0.0098,5.4508c0.0026,0.2701,0.2466,0.4238,0.4948,0.3769
			c2.1252-0.4017,4.2469-0.5145,6.4025-0.3573c0.2126,0.0155,0.3886-0.1917,0.3909-0.3909c0.0152-1.311-0.021-2.6194-0.1343-3.9259
			c-0.0424-0.4893,0.0728-1.5931-0.3811-1.9532c-0.3964-0.3146-1.0838,0.0742-1.4751,0.1617
			c-1.4213,0.3177-2.8526,0.2936-4.2764,0.0148c-0.4915-0.0962-0.7019,0.6571-0.2078,0.7538
			c1.6357,0.3203,3.2868,0.3336,4.9114-0.0692c0.6631-0.1644,0.6015-0.3043,0.5756,0.3587
			c-0.0187,0.4776,0.0952,0.989,0.1273,1.4681c0.0712,1.0632,0.091,2.1258,0.0786,3.1912c0.1303-0.1303,0.2606-0.2606,0.3909-0.3909
			c-2.2259-0.1624-4.4184-0.0291-6.6103,0.3852c0.1649,0.1256,0.3299,0.2513,0.4948,0.3769
			c-0.0175-1.817-0.0142-3.6338,0.0098-5.4508C-582.0138,398.2456-582.7956,398.2453-582.8023,398.7488L-582.8023,398.7488z"/>
	</g>
	<g>
		<path class="st0" d="M-575.3659,398.5324c0.0008,1.871,0.0016,3.7421,0.0025,5.6131c0.0001,0.1984,0.1794,0.4085,0.3909,0.3909
			c1.0735-0.0893,2.1471-0.1399,3.2247-0.1289c0.7539,0.0076,1.7322,0.2717,2.4601,0.1074c1.0229-0.2309,0.615-1.7783,0.5689-2.5303
			c-0.0474-0.7738-0.1257-1.5453-0.2331-2.3131c-0.0588-0.4205-0.027-1.1357-0.4511-1.4153
			c-0.4543-0.2994-1.3827-0.1146-1.8977-0.1146c-1.1039-0.0001-2.2078-0.0001-3.3118-0.0002c-0.503,0-0.5039,0.7817,0,0.7818
			c1.2602,0.0001,2.5252-0.0327,3.7849,0.0002c0.2285,0.006,0.8019-0.0757,0.9866,0.0781c0.1584,0.1319,0.1562,1.0322,0.1787,1.2143
			c0.0815,0.6611,0.1383,1.3254,0.1734,1.9905c0.0113,0.2141,0.1593,1.4624,0.0426,1.5394c-0.2009,0.1326-1.31-0.0953-1.6099-0.1048
			c-1.308-0.0413-2.6126,0.0053-3.9164,0.1137c0.1303,0.1303,0.2606,0.2606,0.3909,0.3909
			c-0.0008-1.871-0.0016-3.7421-0.0025-5.6131C-574.5843,398.0294-575.3661,398.0285-575.3659,398.5324L-575.3659,398.5324z"/>
	</g>
	<g>
		<path class="st0" d="M-568.3282,398.5326c-0.0181,1.7044-0.0362,3.4088-0.0543,5.1132c-0.0023,0.2149,0.181,0.3861,0.3909,0.3909
			c1.248,0.0287,2.4962,0.0574,3.7442,0.0861c0.9128,0.021,1.9856,0.2111,2.8728,0.0281c0.1241-0.0256,0.2476-0.1486,0.2729-0.273
			c0.1852-0.9079-0.2335-2.103-0.3698-3.0125c-0.0932-0.6222-0.0239-2.0957-0.5027-2.5118
			c-0.4489-0.3902-1.5632-0.1993-2.0735-0.2113c-1.3976-0.033-2.7951-0.0661-4.1927-0.0991c-0.5033-0.0119-0.5031,0.7699,0,0.7818
			c1.3976,0.033,2.7951,0.0661,4.1927,0.0991c0.3494,0.0083,0.6988,0.0165,1.0482,0.0248c0.4603-0.1556,0.6386,0.0202,0.5348,0.5272
			c0.232,0.4901,0.198,1.3216,0.2792,1.8634c0.0437,0.2918,0.437,1.6623,0.2792,1.8634c-0.3144,0.4009-1.3398,0.1613-1.8064,0.1505
			c-1.4264-0.0328-2.8528-0.0656-4.2791-0.0984c0.1303,0.1303,0.2606,0.2606,0.3909,0.3909
			c0.0181-1.7044,0.0363-3.4088,0.0543-5.1132C-567.5411,398.0294-568.3229,398.029-568.3282,398.5326L-568.3282,398.5326z"/>
	</g>
	<g>
		<path class="st0" d="M-589.7561,406.4058c-0.0112,1.0487-0.0177,2.0974-0.0167,3.1462c0.0004,0.4574-0.2114,1.344,0.116,1.7232
			c0.2926,0.339,0.8129,0.2551,1.2192,0.2657c0.9567,0.0248,1.9136,0.0406,2.8705,0.0468c0.8857,0.0057,2.2698,0.3887,2.5138-0.6868
			c0.1892-0.8341,0.0012-1.898,0.0017-2.7625c0.0005-0.8027,0.1686-1.8464-0.079-2.6112c-0.0394-0.1216-0.1382-0.2492-0.273-0.273
			c-0.7936-0.14-1.6326-0.0076-2.4371-0.0117c-0.9867-0.005-1.9689-0.0602-2.9515-0.1473c-0.501-0.0444-0.498,0.7376,0,0.7818
			c0.7551,0.0669,1.5109,0.118,2.2689,0.1376c0.6102,0.0158,2.0299-0.2537,2.4831,0.131c0.431,0.3658,0.2071,1.6353,0.2067,2.223
			c-0.0002,0.3837-0.0005,0.7674-0.0007,1.1511c-0.0001,0.1405,0.0898,1.2875-0.0008,1.3813
			c-0.0957,0.099-1.9182-0.0961-2.1737-0.0985c-0.7118-0.0068-1.5051,0.0724-2.2081-0.0375
			c-0.6873-0.1074-0.6703-0.0809-0.7733-0.7634c-0.0542-0.3591-0.0011-0.7619-0.0005-1.1237c0.0014-0.824,0.0075-1.648,0.0164-2.472
			C-588.9689,405.9026-589.7507,405.9022-589.7561,406.4058L-589.7561,406.4058z"/>
	</g>
	<g>
		<path class="st0" d="M-582.7481,405.8993c-0.0002,1.0676-0.0004,2.1352-0.0006,3.2028c-0.0002,0.8331-0.1179,1.7489,0.0485,2.5632
			c0.0262,0.1284,0.1485,0.242,0.273,0.273c0.7121,0.1775,1.639-0.0808,2.3684-0.117c0.9344-0.0464,2.0673,0.1759,2.9797,0.0207
			c1.125-0.1914,0.7773-1.5316,0.8077-2.4326c0.0341-1.0099,0.3053-2.7945-0.612-3.5428c-0.5395-0.44-1.5415-0.4844-2.1953-0.5897
			c-0.9426-0.1518-1.89-0.2003-2.8441-0.1806c-0.5024,0.0104-0.5041,0.7922,0,0.7818c1.4232-0.0294,4.6896-0.1854,4.8869,1.678
			c0.0725,0.6849-0.0021,1.4036-0.0253,2.0899c-0.0107,0.3183,0.1035,0.9254-0.0399,1.1834c0.071,0.235-0.0031,0.3087-0.2221,0.221
			c-0.2237-0.0189-0.4478-0.0299-0.6724-0.033c-0.7637-0.0245-1.5297-0.011-2.2923,0.0335
			c-0.6527,0.0382-1.462,0.3633-1.6794-0.3474c-0.1923-0.6287,0.0003-1.6228,0.0005-2.2877
			c0.0002-0.8388,0.0003-1.6777,0.0005-2.5165C-581.9663,405.3963-582.748,405.3955-582.7481,405.8993L-582.7481,405.8993z"/>
	</g>
	<g>
		<path class="st0" d="M-575.7279,405.2643c0.001,1.9227,0.0019,3.8454,0.0029,5.7681c0.0001,0.194,0.1797,0.4143,0.3909,0.3909
			c0.9375-0.1041,1.8761-0.1804,2.8194-0.2061c0.9208-0.0251,1.9205,0.1555,2.8265,0.0487
			c1.1807-0.1391,0.7853-1.1292,0.6681-2.0652c-0.1117-0.8928-0.2225-1.7857-0.3352-2.6784
			c-0.0469-0.3714-0.0448-0.8721-0.3688-1.1214c-0.3463-0.2665-0.922-0.1672-1.3108-0.1669
			c-0.9993,0.0007-1.9986,0.0015-2.998,0.0022c-0.503,0.0004-0.5039,0.7821,0,0.7818c0.615-0.0005,1.2299-0.0009,1.8449-0.0014
			c0.3206-0.0002,1.614-0.1925,1.8449-0.0014c0.3683,0.3049,0.3193,1.4124,0.3736,1.8462c0.0652,0.5208,0.1304,1.0416,0.1955,1.5624
			c0.0379,0.3026,0.1498,0.9867,0.0857,1.0602c-0.1238,0.1422-1.6415-0.0603-1.884-0.0608
			c-1.2586-0.0028-2.5114,0.0793-3.7619,0.2182c0.1303,0.1303,0.2606,0.2606,0.3909,0.3909
			c-0.001-1.9227-0.0019-3.8454-0.0029-5.7681C-574.9464,404.7613-575.7282,404.7604-575.7279,405.2643L-575.7279,405.2643z"/>
	</g>
</g>
</svg>
