<?xml version="1.0" encoding="utf-8"?>
<!-- Generator: Adobe Illustrator 19.1.0, SVG Export Plug-In . SVG Version: 6.00 Build 0)  -->
<svg version="1.1" id="Layer_1" xmlns="http://www.w3.org/2000/svg" xmlns:xlink="http://www.w3.org/1999/xlink" x="0px" y="0px"
	 viewBox="-589 379.1742 32.6509 36" style="enable-background:new -589 379.1742 32.6509 36;" xml:space="preserve">
<style type="text/css">
	.st0{fill:#FFFFFF;}
</style>
<g>
	<g>
		<path class="st0" d="M-583.7326,382.9921c0.7353-0.955,1.4829-1.8997,2.2414-2.8363c-0.2121,0-0.4243,0-0.6364,0
			c0.6394,0.5017,1.4711,0.27,2.2455,0.2376c1.1523-0.0482,2.3046-0.0964,3.4568-0.1446c0.5771-0.0241,0.5801-0.9243,0-0.9
			c-0.8863,0.0371-1.7725,0.0741-2.6588,0.1112c-0.4492,0.0188-2.0571,0.334-2.4071,0.0594c-0.1753-0.1375-0.4693-0.2063-0.6364,0
			c-0.8068,0.9963-1.6,2.0027-2.3821,3.0185C-584.8629,382.9965-584.0814,383.4451-583.7326,382.9921L-583.7326,382.9921z"/>
	</g>
	<g>
		<g>
			<path class="st0" d="M-583.6996,383.3383c0.6758,0.5315,1.1982,1.1465,1.7122,1.839c0.2774,0.3738,0.5714,1.0657,0.941,1.3472
				c0.5538,0.4218,1.1114,0.2814,1.8181,0.2626c1.1091-0.0295,1.6418,0.1249,2.4312-0.6157
				c1.0203-0.9572,1.9388-2.0456,2.8693-3.0883c0.1652-0.1851,0.1752-0.4515,0-0.6364c-0.6486-0.6846-1.051-1.4958-1.5573-2.2781
				c-0.3136-0.4846-1.0931-0.0339-0.7771,0.4542c0.5491,0.8485,0.999,1.7226,1.698,2.4603c0-0.2121,0-0.4243,0-0.6364
				c-1.2356,1.3846-2.4533,3.3815-4.4099,3.4338c-1.2017,0.0321-1.5332-0.2038-2.2363-1.1575
				c-0.5488-0.7444-1.1222-1.4465-1.8528-2.0211C-583.5136,382.3477-584.1547,382.9803-583.6996,383.3383L-583.6996,383.3383z"/>
		</g>
	</g>
	<g>
		<path class="st0" d="M-577.0174,387.8376c-5.4985-0.0636-11.8316,2.8155-11.9789,9.1381
			c-0.1225,5.2584,2.7959,11.1357,8.4073,11.5057c13.1899,0.8698,16.8052-17.089,3.9512-20.7963
			c-0.5576-0.1608-0.7956,0.7074-0.2393,0.8679c11.107,3.2034,9.1607,18.8598-2.4691,19.0519
			c-5.3094,0.0877-7.5378-3.6763-8.4865-8.3663c-1.3879-6.861,4.7115-10.5716,10.8152-10.501
			C-576.4381,388.7443-576.4377,387.8443-577.0174,387.8376L-577.0174,387.8376z"/>
	</g>
	<g>
		<path class="st0" d="M-575.2405,409.9646c2.3967,2.508,6.6047,5.5368,10.2906,4.9651c3.419-0.5303,6.8198-4.1034,7.9432-7.2208
			c2.7369-7.5947-3.482-14.2997-11.0285-13.9955c-0.5772,0.0233-0.5801,0.9234,0,0.9c6.9229-0.279,12.6157,5.7383,10.146,12.7274
			c-1.1834,3.3489-4.008,5.901-7.483,6.2785c-3.4515,0.3749-6.8598-1.8088-9.2318-4.291
			C-575.0051,408.9087-575.6409,409.5457-575.2405,409.9646L-575.2405,409.9646z"/>
	</g>
	<g>
		<path class="st0" d="M-572.1359,395.23c-3.2836,2.6105-5.3688,6.2589-4.9092,10.5384c0.0612,0.5699,0.9619,0.5761,0.9,0
			c-0.4398-4.0954,1.5243-7.4205,4.6456-9.902C-571.0463,395.5061-571.6869,394.873-572.1359,395.23L-572.1359,395.23z"/>
	</g>
</g>
</svg>
