<?xml version="1.0" encoding="utf-8"?>
<!-- Generator: Adobe Illustrator 19.1.0, SVG Export Plug-In . SVG Version: 6.00 Build 0)  -->
<svg version="1.1" id="Layer_1" xmlns="http://www.w3.org/2000/svg" xmlns:xlink="http://www.w3.org/1999/xlink" x="0px" y="0px"
	 viewBox="-596 378.8266 17.9453 36" style="enable-background:new -596 378.8266 17.9453 36;" xml:space="preserve">
<style type="text/css">
	.st0{fill:#FFFFFF;}
</style>
<g>
	<path class="st0" d="M-584.0823,379.7174c-6.4038-0.5876-11.5285,2.8761-11.9005,9.579c-0.1977,3.5636,1.3284,5.7792,3.2935,8.6351
		c3.306,4.8051,5.3922,10.0014,6.35,15.7461c0.0844,0.5063,0.8906,0.3783,0.8839-0.1196
		c-0.1047-7.8326,6.2883-13.3898,7.2746-20.9269c0.6063-4.6329-0.9012-10.8038-6.1184-11.8159
		c-0.5659-0.1098-0.8082,0.7575-0.2393,0.8679c9.374,1.8186,4.6732,14.6176,1.9691,19.8657
		c-1.7441,3.3849-3.5494,6.7505-3.8046,10.6246c0.2062-0.1459,0.4124-0.2917,0.6185-0.4376
		c-0.1223-0.5622-0.2446-1.1244-0.367-1.6866c-0.2282-1.5947-0.9902-3.44-1.5842-4.9259c-0.7624-1.9072-1.6979-3.7414-2.7757-5.4884
		c-1.9566-3.1715-4.3676-5.7082-4.6065-9.6503c-0.3907-6.4498,5.376-9.8837,11.0064-9.3671
		C-583.5057,380.6703-583.5093,379.77-584.0823,379.7174L-584.0823,379.7174z"/>
</g>
<g>
	<path class="st0" d="M-586.4443,386.3852c-2.4588-0.5341-4.5622,3.3839-2.5989,5.0585c0.9456,0.8065,2.7043,1.3282,3.8825,0.7819
		c1.0642-0.4934,1.0488-1.8969,0.6255-2.8446c-0.3949-0.8842-1.4983-1.9395-2.5228-1.3167
		c-0.6438,0.3913-1.2501,1.7991-0.6883,2.4405c0.5207,0.5946,1.9016,0.4504,2.0609-0.4c0.0812-0.4338-0.1761-0.8019-0.6103-0.8831
		c-0.4926-0.0921-0.8215,0.2567-1.0745,0.6227c-0.3301,0.4776,0.4496,0.9281,0.7771,0.4542
		c0.1319-0.1908-0.7791-0.7279-0.1818-1.2555c0.5537-0.4893,1.0543,0.0576,1.3077,0.4828c0.3269,0.5484,0.3819,1.0136,0.04,1.5457
		c-0.3981,0.6195-0.8846,0.531-1.5565,0.3544c-1.0884-0.2861-2.1187-0.871-1.8401-2.1761c0.2119-0.9924,0.9501-2.2553,2.1402-1.9968
		C-586.1189,387.3757-585.8777,386.5083-586.4443,386.3852L-586.4443,386.3852z"/>
</g>
</svg>
