<?xml version="1.0" encoding="utf-8"?>
<!-- Generator: Adobe Illustrator 19.1.0, SVG Export Plug-In . SVG Version: 6.00 Build 0)  -->
<svg version="1.1" id="Layer_1" xmlns="http://www.w3.org/2000/svg" xmlns:xlink="http://www.w3.org/1999/xlink" x="0px" y="0px"
	 viewBox="0 0 37.4215 35.9915" style="enable-background:new 0 0 37.4215 35.9915;" xml:space="preserve">
<style type="text/css">
	.st0{fill:#FFFFFF;}
</style>
<g>
	<path class="st0" d="M17.8948,5.7224C12.1935,0.8275,1.3744-4.6225,0.1061,6.5938c-1.3736,12.1469,10.8974,22.1199,18.9344,29.2716
		c0.1973,0.1755,0.5771,0.1875,0.7068-0.0911c2.6176-5.6262,6.4156-10.4,10.1058-15.3431c2.4523-3.2849,7.3951-8.7975,7.565-13.1588
		c0.13-3.3354-3.4831-4.7059-6.2173-5.5486c-5.9571-1.836-6.9382,0.8571-12.1167,3.6826c-0.5086,0.2775-0.0549,1.0549,0.4542,0.7771
		c3.9713-2.1668,6.2864-4.9131,11.4232-3.5918c4.0223,1.0346,5.5704,4.7271,3.8149,8.7167c-0.6185,1.4056-1.6083,2.821-2.4467,4.101
		c-3.7431,5.7144-7.8531,11.6085-11.9514,17.0491c-1.4883,1.9757-1.1089,1.9616-3.2217,0.514
		c-1.3464-0.9225-2.5282-2.3225-3.7035-3.469c-3.1388-3.0619-6.2804-6.3287-8.6939-10.0036
		c-2.3571-3.5891-4.079-7.726-3.8452-12.0939C1.5161-3.8406,13.02,2.7198,17.2584,6.3588
		C17.6957,6.7343,18.3352,6.1005,17.8948,5.7224L17.8948,5.7224z"/>
</g>
</svg>
