<?xml version="1.0" encoding="utf-8"?>
<!-- Generator: Adobe Illustrator 19.1.0, SVG Export Plug-In . SVG Version: 6.00 Build 0)  -->
<svg version="1.1" id="Layer_1" xmlns="http://www.w3.org/2000/svg" xmlns:xlink="http://www.w3.org/1999/xlink" x="0px" y="0px"
	 viewBox="-472.5273 158 43 36" style="enable-background:new -472.5273 158 43 36;" xml:space="preserve">
<style type="text/css">
	.st0{fill:#FFFFFF;}
</style>
<g>
	<g>
		<path class="st0" d="M-470.6787,183.7694c-0.0245-1.2245-0.6244-3.9479-0.1024-5.1179c1.175-2.6335,3.6801-1.9901,5.8942-2.0597
			c3.9055-0.1227,7.8122-0.2109,11.7192-0.2646c3.907-0.0536,7.8144-0.0727,11.7217-0.0572
			c1.7624,0.007,4.1262-0.3867,5.8608,0.0491c2.343-0.5128,3.7333,0.6711,4.1707,3.5514c0.0141,0.8831,0.0281,1.7661,0.0422,2.6492
			c0.0819,5.1444-3.3605,4.0337-7.5095,4.1069c-3.6528,0.0644-7.3055,0.1324-10.9584,0.1905
			c-3.7705,0.06-7.5412,0.1075-11.3122,0.1066c-2.2018-0.0006-9.9082,1.0649-9.945-1.9241c-0.0071-0.5787-0.9072-0.5803-0.9,0
			c0.0092,0.7433,0.0183,1.4866,0.0275,2.23c0.0031,0.2481,0.2038,0.4433,0.45,0.45c13.5523,0.3666,27.1165-0.0555,40.6679-0.2944
			c0.2403-0.0042,0.4539-0.2027,0.45-0.45c-0.042-2.6384,1.358-9.2774-1.2015-11.0631c-1.4893-1.039-4.2837-0.4589-5.9352-0.475
			c-3.9072-0.0381-7.8146-0.042-11.7218-0.0119c-3.5817,0.0276-7.1631,0.0858-10.7438,0.172
			c-1.6277,0.0391-3.2552,0.0836-4.8825,0.1347c-1.0568,0.0332-4.9438-0.4958-5.8577,0.21
			c-1.9919,1.5383-0.8842,5.3677-0.8342,7.8676C-471.5671,184.3478-470.6671,184.3497-470.6787,183.7694L-470.6787,183.7694z"/>
	</g>
	<g>
		<path class="st0" d="M-466.8815,187.3209c-0.0503,1.0912-0.1006,2.1824-0.151,3.2736c-0.0267,0.579,0.8734,0.5777,0.9,0
			c0.0503-1.0912,0.1007-2.1824,0.151-3.2736C-465.9547,186.7419-466.8548,186.7432-466.8815,187.3209L-466.8815,187.3209z"/>
	</g>
	<g>
		<path class="st0" d="M-435.8922,187.1828c0,1.2735,0,2.5471,0,3.8206c0,0.5791,0.9,0.5801,0.9,0c0-1.2735,0-2.5471,0-3.8206
			C-434.9922,186.6037-435.8922,186.6027-435.8922,187.1828L-435.8922,187.1828z"/>
	</g>
	<g>
		<path class="st0" d="M-433.0963,173.2643c0.0437-2.0308,0.6148-5.9958-0.3297-7.7628c-0.3498-0.6543-2.9969-1.4866-3.4571-1.6767
			c-5.6673-2.341-11.8431-3.4481-17.9692-3.2376c-4.7667,0.1638-8.509,1.1315-12.5478,3.6567
			c-3.2188,2.0125-1.8009,6.2119-1.7939,9.7952c0.0006,0.3233,0.2856,0.4725,0.5696,0.4339
			c1.2675,0.0222,2.535,0.0443,3.8025,0.0665c0.2798,0.0474,0.5742-0.1176,0.5696-0.4339
			c-0.0461-3.1658,5.4759-4.3824,7.7876-3.9724c2.0789,0.207,3.3733,1.0848,3.8834,2.6335
			c0.0698,0.1851,0.1435,0.3685,0.2211,0.5503c0.4638,0.2062,0.6631,0.6985,1.1618,0.8149c1.201,0.2803,0.6649-0.3276,1.1718-0.4681
			c0.8831-0.8987,1.7661-1.7975,2.6492-2.6963c0.8105-0.2242,1.6327-0.3926,2.4663-0.5051
			c2.4093-0.3938,7.4111-1.3704,7.8056,2.9361c0.0165,0.1807,0.1266,0.4009,0.3304,0.4339c1.3154,0.213,1.0266,0.2132,2.3419-0.0008
			c0.5702-0.0928,0.3283-0.9602-0.2393-0.8679c-1.3068,0.2126-3.3831-3.3192-5.0534-3.6811c-2.291-0.4964-7.139,0.048-9.0969,1.3161
			c0.5318-0.3445-2.7953,2.0621-1.7039,1.9527c-1.4349,0.1438-1.5989-1.6116-2.4986-2.3872
			c-1.9492-1.6804-5.6278-0.9233-7.8267-0.4183c-1.2931,0.297-2.4213,0.5792-3.4554,1.4622
			c-0.4426,0.378-0.884,2.0018-1.6152,2.2367c-1.8822,0.6047-2.1325-0.9433-2.3771-2.3028
			c-0.3346-1.8595,0.1982-4.9151,1.7069-6.2384c0.4354-0.3819,1.2792-0.3694,1.7776-0.7365
			c4.4289-3.2626,10.7487-3.041,16.0284-2.4632c3.4171,0.374,6.8045,1.1751,10.0331,2.3546
			c4.8469,1.7707,4.8579,4.5326,4.7574,9.2059C-434.0088,173.8437-433.1088,173.8436-433.0963,173.2643L-433.0963,173.2643z"/>
	</g>
</g>
</svg>
