<?xml version="1.0" encoding="utf-8"?>
<!-- Generator: Adobe Illustrator 19.1.0, SVG Export Plug-In . SVG Version: 6.00 Build 0)  -->
<svg version="1.1" id="Layer_1" xmlns="http://www.w3.org/2000/svg" xmlns:xlink="http://www.w3.org/1999/xlink" x="0px" y="0px"
	 viewBox="-592 378.5411 26.1071 36" style="enable-background:new -592 378.5411 26.1071 36;" xml:space="preserve">
<style type="text/css">
	.st0{fill:#FFFFFF;}
</style>
<g>
	<g>
		<path class="st0" d="M-590.0301,392.8193c5.0949-0.0005,10.1898-0.001,15.2846-0.0015c1.1883-0.0001,4.6489-0.4629,5.7317-0.0006
			c2.2164,1.0703,2.5704,2.5358,1.0621,4.3964c-1.2099-0.0629-2.4205-0.1069-3.6317-0.1321
			c-4.2387-0.0882-8.4833,0.0545-12.7065,0.4268c-0.9796,0.0864-4.7441,1.0551-5.5368,0.6212
			c-2.1863-1.1968-1.2605-3.977-1.0925-6.0951c0.0458-0.5775-0.8544-0.5745-0.9,0c-0.1804,2.2743-0.2254,4.5071-0.1366,6.7868
			c0.0125,0.3203,0.2761,0.476,0.5696,0.4339c4.1629-0.5967,8.3333-1.025,12.5359-1.1989c1.8155-0.0751,3.633-0.108,5.45-0.0984
			c1.5292,0.008,4.3333,0.6316,5.7534,0.1429c2.1321-0.7338,1.9244-3.6801,1.4181-5.7392
			c-0.0367-0.1494-0.1663-0.2759-0.3143-0.3143c-2.9537-0.766-7.0531-0.1296-10.1128-0.1293
			c-4.458,0.0004-8.916,0.0009-13.3741,0.0013C-590.6092,391.9194-590.6102,392.8194-590.0301,392.8193L-590.0301,392.8193z"/>
	</g>
	<g>
		<path class="st0" d="M-589.4833,400.5353c0.0035,3.2376,0.007,6.4752,0.0105,9.7128c0.0003,0.2426,0.206,0.451,0.45,0.45
			c3.6415-0.0143,7.2829-0.0286,10.9244-0.0429c1.5737-0.0062,7.3538,0.9077,8.7102-0.2153
			c0.5878-0.4867,0.5474-0.8835,0.6874-1.5983c0.6024-3.0766-0.152-7.0012-0.2202-10.1409c-0.0126-0.5783-0.9126-0.5803-0.9,0
			c0.0546,2.5131,0.8376,6.293,0.1888,8.6922c0.4879,1.5965-0.2533,2.3757-2.2236,2.3378c-0.5202,0.002-1.0404,0.0041-1.5606,0.0061
			c-1.7842,0.1738-3.6679,0.0144-5.4622,0.0215c-1.9015,0.0075-7.769,0.8781-9.1395-0.432c-1.363-1.3028-0.563-6.8789-0.5651-8.791
			C-588.5839,399.9562-589.4839,399.9552-589.4833,400.5353L-589.4833,400.5353z"/>
	</g>
	<g>
		<path class="st0" d="M-580.0627,388.9423c-1.0165-2.1843-2.2924-5.0579-4.4946-6.3145c-1.5741-0.8983-3.9305-0.7901-4.7314,1.1043
			c-0.7847,1.8561,1.0015,3.781,2.2395,4.9315c1.7928,1.6661,4.0084,2.7315,6.4026,3.1954
			c0.5659,0.1096,0.8082-0.7576,0.2393-0.8679c-2.9704-0.5755-6.0489-2.2362-7.6672-4.8983c-1.376-2.2636,1.075-3.8156,3.063-2.6879
			c0.7809,0.443,1.3905,1.1978,1.8963,1.9138c0.8976,1.2706,1.6204,2.6706,2.2753,4.0778
			C-580.5957,389.9212-579.8196,389.4647-580.0627,388.9423L-580.0627,388.9423z"/>
	</g>
	<g>
		<path class="st0" d="M-580.0533,391.3641c-0.1302-1.7776,0.2993-2.984,1.3514-4.4122c0.7821-1.0617,1.8473-2.5495,3.2066-2.8867
			c1.9997-0.4962,2.0673,1.7739,1.3916,2.8975c-0.4743,0.7887-1.2304,1.337-1.9788,1.8383
			c-0.3393,0.2273-3.7061,2.1802-3.7223,2.1242c-0.1601-0.5555-1.0288-0.3193-0.8679,0.2393
			c0.1848,0.6409,0.6105,0.8313,1.2527,0.6845c0.5849-0.1337,1.1653-0.666,1.677-0.9762c0.7058-0.428,1.4262-0.8391,2.1147-1.2945
			c1.6946-1.1209,3.705-3.204,2.6391-5.4313c-1.015-2.1211-3.4581-0.8792-4.7299,0.2846c-2.0478,1.8739-3.44,4.124-3.2343,6.9327
			C-580.9113,391.9383-580.0109,391.9429-580.0533,391.3641L-580.0533,391.3641z"/>
	</g>
</g>
</svg>
