<?xml version="1.0" encoding="utf-8"?>
<!-- Generator: Adobe Illustrator 19.1.0, SVG Export Plug-In . SVG Version: 6.00 Build 0)  -->
<svg version="1.1" id="Layer_1" xmlns="http://www.w3.org/2000/svg" xmlns:xlink="http://www.w3.org/1999/xlink" x="0px" y="0px"
	 viewBox="-586 379.348 38.2409 36" style="enable-background:new -586 379.348 38.2409 36;" xml:space="preserve">
<style type="text/css">
	.st0{fill:#FFFFFF;}
</style>
<g>
	<g>
		<path class="st0" d="M-574.7203,382.8273c-4.2243-0.0488-9.0694,2.1813-9.1808,7.0295c-0.0929,4.0458,2.1637,8.5402,6.4761,8.8225
			c10.1133,0.6621,12.8725-13.1222,3.0213-15.9635c-0.5576-0.1608-0.7956,0.7074-0.2393,0.8679
			c8.2929,2.3918,6.8419,14.0675-1.8409,14.2134c-3.9674,0.0667-5.6156-2.7517-6.3215-6.2556
			c-1.0324-5.1249,3.5365-7.8667,8.0851-7.8141C-574.141,383.734-574.1406,382.834-574.7203,382.8273L-574.7203,382.8273z"/>
	</g>
	<g>
		<path class="st0" d="M-585.0989,411.5128c0.5247-8.1032,10.1882-11.3059,15.9742-6.1321c0.4306,0.385,1.0692-0.2493,0.6364-0.6364
			c-6.4625-5.7787-16.9288-2.2171-17.5106,6.7685C-586.0363,412.0911-585.1362,412.0889-585.0989,411.5128L-585.0989,411.5128z"/>
	</g>
	<g>
		<path class="st0" d="M-557.963,382.8626c-4.3529-0.5215-8.373,2.3133-8.9969,6.7377c-0.6841,4.851,2.3334,8.3102,7.0452,8.9426
			c4.733,0.6352,8.1504-1.8483,8.6224-6.6882c0.4388-4.4991-2.1905-8.8716-6.9804-9.0253c-0.5793-0.0186-0.5787,0.8814,0,0.9
			c4.6212,0.1483,6.7689,4.7394,5.9696,8.8769c-0.8311,4.302-4.2793,5.7682-8.3141,4.9132
			c-8.9006-1.886-6.006-14.7944,2.6542-13.7569C-557.3891,383.8313-557.3941,382.9307-557.963,382.8626L-557.963,382.8626z"/>
	</g>
	<g>
		<path class="st0" d="M-568.7458,411.385c1.1721-5.0581,4.9516-9.9413,10.4962-9.9776c5.8788-0.0385,7.7502,5.8194,9.6733,10.3561
			c0.2253,0.5315,1.0008,0.0734,0.7771-0.4542c-2.1515-5.0754-4.457-11.459-11.1171-10.9454
			c-5.6002,0.4318-9.5153,5.681-10.6974,10.7819C-569.7442,411.7094-568.8767,411.95-568.7458,411.385L-568.7458,411.385z"/>
	</g>
</g>
</svg>
