<?xml version="1.0" encoding="utf-8"?>
<!-- Generator: Adobe Illustrator 19.1.0, SVG Export Plug-In . SVG Version: 6.00 Build 0)  -->
<svg version="1.1" id="Layer_1" xmlns="http://www.w3.org/2000/svg" xmlns:xlink="http://www.w3.org/1999/xlink" x="0px" y="0px"
	 viewBox="0 0 132.3691 47.6392" style="enable-background:new 0 0 132.3691 47.6392;" xml:space="preserve">
<style type="text/css">
	.st0{fill:#651B36;}
	.st1{fill:#4E4E4E;}
	.st2{fill:#010101;}
</style>
<text transform="matrix(1 0 0 1 912.5614 -185.405)" class="st0" style="font-family:'Archer-BookItalic'; font-size:16px;">and</text>
<g>
	<g>
		<text transform="matrix(1 0 0 1 856.1058 -166.4895)"><tspan x="0" y="0" class="st1" style="font-family:'NeutraDisp-Medium'; font-size:12px;">matthew M</tspan><tspan x="77.0635" y="0" class="st1" style="font-family:'NeutraDisp-Medium'; font-size:12px; letter-spacing:2;"> </tspan><tspan x="81.8271" y="0" class="st1" style="font-family:'NeutraDisp-Medium'; font-size:12px;">INERNEY </tspan></text>
	</g>
	
		<text transform="matrix(1 0 0 1 932.7059 -170.5601)" class="st2" style="font-family:'NeutraDisp-Medium'; font-size:12px; letter-spacing:1;">c</text>
</g>
<g>
	
		<text transform="matrix(1 0 0 1 866.0131 -205.6133)" class="st1" style="font-family:'NeutraDisp-Medium'; font-size:12px; letter-spacing:1;">susannah DUSCH</text>
</g>
<g>
	<path class="st0" d="M1111.282-188.0624c0-2.2891,1.6641-4.1934,3.6016-4.1934c1.2158,0,2.0156,0.6719,2.209,1.7441l0.3994-1.6963
		h0.833l-1.249,5.1221c-0.0635,0.2559-0.1123,0.5117-0.1123,0.6406c0,0.3193,0.209,0.5283,0.4961,0.5283
		c0.3525,0,0.625-0.3203,0.9287-1.0566l0.4961,0.1602c-0.3193,0.9443-0.7998,1.5039-1.5361,1.5039
		c-0.7051,0-1.1855-0.4482-1.1855-1.0723v-0.2715c-0.5918,0.7842-1.4238,1.376-2.4004,1.376
		C1112.3054-185.2773,1111.282-186.3339,1111.282-188.0624z M1116.7722-189.4872c0-1.2002-0.6406-2.0166-1.8574-2.0166
		c-1.6162,0-2.7363,1.6807-2.7363,3.4258c0,1.248,0.6074,2.0488,1.7598,2.0488
		C1115.6833-186.0292,1116.7722-187.9824,1116.7722-189.4872z"/>
	<path class="st0" d="M1124.7078-186.4453c0-0.1768,0.0635-0.5127,0.1279-0.7363l0.6885-2.3857
		c0.0957-0.3516,0.1602-0.624,0.1602-0.9121c0-0.6084-0.4805-1.0566-1.1689-1.0566c-0.9922,0-2.2568,1.041-2.7373,2.9297
		l-0.8008,3.2012h-0.832l1.5049-5.9863h-1.2803l0.1914-0.7363h2.0654l-0.416,1.6162c0.6562-1.0557,1.4717-1.7441,2.4326-1.7441
		c1.1211,0,1.8887,0.752,1.8887,1.7441c0,0.3369-0.0957,0.7051-0.1914,1.0566l-0.6895,2.3535
		c-0.0635,0.2236-0.1113,0.5273-0.1113,0.6562c0,0.3193,0.208,0.5283,0.4961,0.5283c0.3516,0,0.625-0.3203,0.9287-1.0566
		l0.4961,0.1602c-0.3203,0.9443-0.7998,1.5039-1.5361,1.5039C1125.2195-185.3095,1124.7078-185.7734,1124.7078-186.4453z"/>
	<path class="st0" d="M1132.1628-192.2558c1.1523,0,2.0801,0.6396,2.2734,1.7441l1.3594-5.874h-1.2803l0.1768-0.7363h2.1123
		l-2.3525,10.0361c-0.0645,0.2559-0.1123,0.5117-0.1123,0.6406c0,0.3193,0.1758,0.5283,0.4795,0.5283
		c0.3691,0,0.6406-0.3203,0.9453-1.0566l0.4961,0.1602c-0.3203,0.9443-0.8008,1.5039-1.5371,1.5039
		c-0.6875,0-1.168-0.4482-1.168-1.1201c0-0.0645,0-0.1445,0.0156-0.2236c-0.5762,0.7676-1.4082,1.376-2.4004,1.376
		c-1.457,0-2.5449-1.0723-2.5449-2.8008C1128.6257-190.4316,1130.322-192.2558,1132.1628-192.2558z M1134.1472-189.455
		c0-1.2324-0.7041-2.0488-1.9199-2.0488c-1.6172,0-2.7051,1.665-2.7051,3.4092c0,1.249,0.6719,2.0654,1.8242,2.0654
		C1133.0437-186.0292,1134.1472-187.8867,1134.1472-189.455z"/>
</g>
<g>
	<g>
		<g>
			<path class="st1" d="M1055.7175-174.8129h0.0488l3.8379,4.749l3.8145-4.749h0.0586v8.3232h-0.7422v-6.4043l-3.1309,3.9336
				h-0.0488l-3.0938-3.9336v6.4043h-0.7441V-174.8129z"/>
			<path class="st1" d="M1066.5671-166.4897h-0.7812l3.4316-8.3477h0.0586l3.4434,8.3477h-0.8047l-0.5625-1.415h-4.2109
				L1066.5671-166.4897z M1069.2527-173.122l-1.834,4.5215h3.6445C1071.075-168.6005,1069.2527-173.122,1069.2527-173.122z"/>
			<path class="st1" d="M1075.7937-173.9496h-2.5312v-0.6953h5.8301v0.6953h-2.5195v7.46h-0.7793V-173.9496z"/>
			<path class="st1" d="M1083.1257-173.9496h-2.5312v-0.6953h5.8301v0.6953h-2.5195v7.46h-0.7793V-173.9496z"/>
			<path class="st1" d="M1093.8992-174.645h0.7793v8.1553h-0.7793v-2.6865h-4.4492v2.6865h-0.7793v-8.1553h0.7793v4.7729h4.4492
				V-174.645z"/>
			<path class="st1" d="M1097.6707-174.645h4.918v0.6953h-4.1387v4.0776h3.6934v0.6836h-3.6934v2.0029h4.3066v0.6958h-5.0859
				V-174.645z"/>
			<path class="st1" d="M1104.5476-174.645h0.8145l1.9922,6.3442l2.457-6.5366h0.0605l2.4707,6.5366l1.9785-6.3442h0.7676
				l-2.6855,8.311h-0.0605l-2.4941-6.6323l-2.543,6.6323h-0.0488L1104.5476-174.645z"/>
			<path class="st1" d="M1120.95-174.8129h0.0488l3.8379,4.749l3.8125-4.749h0.0605v8.3232h-0.7441v-6.4043l-3.1289,3.9336h-0.0488
				l-3.0938-3.9336v6.4043h-0.7441V-174.8129z"/>
			<path class="st1" d="M1136.5144-174.645h0.791v8.1553h-0.791V-174.645z"/>
			<path class="st1" d="M1141.073-172.9062v6.4165h-0.7324v-8.3232h0.0723l5.4941,6.584v-6.416h0.7305v8.3232h-0.0723
				L1141.073-172.9062z"/>
			<path class="st1" d="M1149.6296-174.645h4.918v0.6953h-4.1387v4.0776h3.6934v0.6836h-3.6934v2.0029h4.3066v0.6958h-5.0859
				V-174.645z"/>
			<path class="st1" d="M1162.2859-166.4897h-0.9473l-1.6191-2.0869c-0.2148,0.0361-0.4316,0.0479-0.6719,0.0479h-0.9941v2.0391
				h-0.7812v-8.1553h1.7754c2.2188,0,3.3711,1.3071,3.3711,3.0703c0,1.3071-0.6484,2.3745-1.9082,2.8184L1162.2859-166.4897z
				 M1159.0007-169.2123c1.8594,0,2.6016-0.9951,2.6016-2.3623c0-1.3677-0.7559-2.375-2.6016-2.375h-0.9473v4.7373H1159.0007z"/>
			<path class="st1" d="M1165.7449-172.9062v6.4165h-0.7324v-8.3232h0.0723l5.4941,6.584v-6.416h0.7305v8.3232h-0.0723
				L1165.7449-172.9062z"/>
			<path class="st1" d="M1174.3015-174.645h4.918v0.6953h-4.1387v4.0776h3.6934v0.6836h-3.6934v2.0029h4.3066v0.6958h-5.0859
				V-174.645z"/>
			<path class="st1" d="M1181.1667-174.645h0.8633l2.625,4.8091l2.6152-4.8091h0.8164l-3.0469,5.6006v2.5547h-0.791v-2.5547
				L1181.1667-174.645z"/>
		</g>
	</g>
	<g>
		<path class="st1" d="M1130.0652-172.5268c0-1.1875,0.8877-2.0752,2.0391-2.0752c0.6963,0,1.1875,0.228,1.5596,0.6357
			l-0.4922,0.4438c-0.252-0.2759-0.6113-0.4438-1.0674-0.4438c-0.7676,0-1.2715,0.624-1.2715,1.4395
			c0,0.8032,0.5039,1.4272,1.2715,1.4272c0.54,0,0.9121-0.2158,1.1641-0.4917l0.4912,0.4316
			c-0.3721,0.4438-0.9111,0.6953-1.6553,0.6953C1130.9529-170.4643,1130.0652-171.3515,1130.0652-172.5268z"/>
	</g>
</g>
<g>
	<g>
		<path class="st1" d="M1065.1404-207.5082c0.4326,0.8154,1.1748,1.2832,2.1348,1.2832c1.1162,0,1.7754-0.5518,1.7754-1.4028
			c0-0.8999-0.5518-1.3076-1.5352-1.7632l-0.6592-0.312c-1.1758-0.5518-1.8838-1.0791-1.8838-2.2188
			c0-1.1631,0.8994-1.9429,2.0986-1.9429c1.0195,0,1.7275,0.3838,2.2305,1.1992l-0.5996,0.3838
			c-0.3711-0.6113-0.875-0.8994-1.6191-0.8994c-0.8027,0-1.3428,0.5156-1.3428,1.2354c0,0.7798,0.4443,1.0674,1.4395,1.5352
			l0.6592,0.312c1.3076,0.6235,1.9912,1.2231,1.9912,2.4463c0,1.3433-1.0195,2.1348-2.542,2.1348
			c-1.332,0-2.2793-0.6475-2.8066-1.6431L1065.1404-207.5082z"/>
		<path class="st1" d="M1072.616-208.3837v-5.3848h0.7803v5.3247c0,1.4751,0.8271,2.2188,2.0986,2.2188
			c1.2832,0,2.0996-0.7437,2.0996-2.2188v-5.3247h0.7793v5.3848c0,1.895-1.2363,2.8662-2.8789,2.8662
			S1072.616-206.4887,1072.616-208.3837z"/>
		<path class="st1" d="M1081.5681-207.5082c0.4326,0.8154,1.1748,1.2832,2.1348,1.2832c1.1162,0,1.7754-0.5518,1.7754-1.4028
			c0-0.8999-0.5518-1.3076-1.5352-1.7632l-0.6592-0.312c-1.1758-0.5518-1.8838-1.0791-1.8838-2.2188
			c0-1.1631,0.8994-1.9429,2.0986-1.9429c1.0195,0,1.7275,0.3838,2.2305,1.1992l-0.5996,0.3838
			c-0.3711-0.6113-0.875-0.8994-1.6191-0.8994c-0.8027,0-1.3428,0.5156-1.3428,1.2354c0,0.7798,0.4443,1.0674,1.4395,1.5352
			l0.6592,0.312c1.3076,0.6235,1.9912,1.2231,1.9912,2.4463c0,1.3433-1.0195,2.1348-2.542,2.1348
			c-1.332,0-2.2793-0.6475-2.8066-1.6431L1081.5681-207.5082z"/>
		<path class="st1" d="M1089.0808-205.6132h-0.7793l3.4297-8.3477h0.0605l3.4414,8.3477h-0.8037l-0.5635-1.415h-4.21
			L1089.0808-205.6132z M1091.7664-212.2455l-1.834,4.5215h3.6455C1093.5906-207.7241,1091.7664-212.2455,1091.7664-212.2455z"/>
		<path class="st1" d="M1098.571-212.0297v6.4165h-0.7305v-8.3232h0.0713l5.4932,6.584v-6.416h0.7314v8.3232h-0.0713
			L1098.571-212.0297z"/>
		<path class="st1" d="M1108.1589-212.0297v6.4165h-0.7305v-8.3232h0.0713l5.4932,6.584v-6.416h0.7314v8.3232h-0.0713
			L1108.1589-212.0297z"/>
		<path class="st1" d="M1117.1121-205.6132h-0.7793l3.4297-8.3477h0.0605l3.4414,8.3477h-0.8037l-0.5635-1.415h-4.21
			L1117.1121-205.6132z M1119.7976-212.2455l-1.834,4.5215h3.6455C1121.6218-207.7241,1119.7976-212.2455,1119.7976-212.2455z"/>
		<path class="st1" d="M1131.1003-213.7685h0.7803v8.1553h-0.7803v-2.6865h-4.4492v2.6865h-0.7793v-8.1553h0.7793v4.7729h4.4492
			V-213.7685z"/>
		<path class="st1" d="M1139.0359-213.7685h2.0391c2.6973,0,4.3047,1.667,4.3047,4.0776s-1.5947,4.0776-4.3047,4.0776h-2.0391
			V-213.7685z M1141.0027-206.3207c2.4102,0,3.5615-1.3911,3.5615-3.3701s-1.1514-3.3701-3.5615-3.3701h-1.1875v6.7402H1141.0027z"
			/>
		<path class="st1" d="M1148.1072-208.3837v-5.3848h0.7803v5.3247c0,1.4751,0.8262,2.2188,2.0977,2.2188
			c1.2832,0,2.0996-0.7437,2.0996-2.2188v-5.3247h0.7793v5.3848c0,1.895-1.2354,2.8662-2.8789,2.8662
			C1149.3425-205.5175,1148.1072-206.4887,1148.1072-208.3837z"/>
		<path class="st1" d="M1157.0593-207.5082c0.4316,0.8154,1.1758,1.2832,2.1348,1.2832c1.1152,0,1.7754-0.5518,1.7754-1.4028
			c0-0.8999-0.5518-1.3076-1.5352-1.7632l-0.6602-0.312c-1.1748-0.5518-1.8828-1.0791-1.8828-2.2188
			c0-1.1631,0.9004-1.9429,2.0996-1.9429c1.0195,0,1.7266,0.3838,2.2305,1.1992l-0.5996,0.3838
			c-0.3721-0.6113-0.876-0.8994-1.6191-0.8994c-0.8037,0-1.3438,0.5156-1.3438,1.2354c0,0.7798,0.4434,1.0674,1.4395,1.5352
			l0.6602,0.312c1.3066,0.6235,1.9902,1.2231,1.9902,2.4463c0,1.3433-1.0195,2.1348-2.543,2.1348
			c-1.3301,0-2.2783-0.6475-2.8066-1.6431L1157.0593-207.5082z"/>
		<path class="st1" d="M1163.9363-209.6909c0-2.4229,1.8105-4.1738,4.125-4.1738c1.3789,0,2.4707,0.5635,3.2021,1.5229
			l-0.5996,0.4321c-0.6123-0.7915-1.4756-1.2476-2.6143-1.2476c-1.8945,0-3.2988,1.4873-3.2988,3.4663
			c0,2.0029,1.4277,3.4658,3.3584,3.4658c1.1748,0,2.123-0.4917,2.7705-1.355l0.6113,0.4316
			c-0.8027,1.0557-1.9424,1.6309-3.4062,1.6309C1165.7468-205.5175,1163.9236-207.2685,1163.9363-209.6909z"/>
		<path class="st1" d="M1179.4001-213.7685h0.7803v8.1553h-0.7803v-2.6865h-4.4502v2.6865h-0.7793v-8.1553h0.7793v4.7729h4.4502
			V-213.7685z"/>
	</g>
</g>
<g>
	<g>
		<path class="st0" d="M55.5644,25.8984c0-2.2891,1.6641-4.1934,3.6016-4.1934c1.2158,0,2.0156,0.6719,2.209,1.7441l0.3994-1.6963
			h0.833l-1.249,5.1221c-0.0635,0.2559-0.1123,0.5117-0.1123,0.6406c0,0.3193,0.209,0.5283,0.4961,0.5283
			c0.3525,0,0.625-0.3203,0.9287-1.0566l0.4961,0.1602c-0.3193,0.9443-0.7998,1.5039-1.5361,1.5039
			c-0.7051,0-1.1855-0.4482-1.1855-1.0723v-0.2715c-0.5918,0.7842-1.4238,1.376-2.4004,1.376
			C56.5879,28.6836,55.5644,27.627,55.5644,25.8984z M61.0547,24.4736c0-1.2002-0.6406-2.0166-1.8574-2.0166
			c-1.6162,0-2.7363,1.6807-2.7363,3.4258c0,1.248,0.6074,2.0488,1.7598,2.0488C59.9658,27.9316,61.0547,25.9785,61.0547,24.4736z"
			/>
		<path class="st0" d="M68.9902,27.5156c0-0.1768,0.0635-0.5127,0.1279-0.7363l0.6885-2.3857
			c0.0957-0.3516,0.1602-0.624,0.1602-0.9121c0-0.6084-0.4805-1.0566-1.1689-1.0566c-0.9922,0-2.2568,1.041-2.7373,2.9297
			l-0.8008,3.2012h-0.832l1.5049-5.9863h-1.2803l0.1914-0.7363h2.0654l-0.416,1.6162c0.6562-1.0557,1.4717-1.7441,2.4326-1.7441
			c1.1211,0,1.8887,0.752,1.8887,1.7441c0,0.3369-0.0957,0.7051-0.1914,1.0566l-0.6895,2.3535
			c-0.0635,0.2236-0.1113,0.5273-0.1113,0.6562c0,0.3193,0.208,0.5283,0.4961,0.5283c0.3516,0,0.625-0.3203,0.9287-1.0566
			l0.4961,0.1602c-0.3203,0.9443-0.7998,1.5039-1.5361,1.5039C69.5019,28.6514,68.9902,28.1875,68.9902,27.5156z"/>
		<path class="st0" d="M76.4453,21.7051c1.1523,0,2.0801,0.6396,2.2734,1.7441l1.3594-5.874h-1.2803l0.1768-0.7363h2.1123
			L78.7343,26.875c-0.0645,0.2559-0.1123,0.5117-0.1123,0.6406c0,0.3193,0.1758,0.5283,0.4795,0.5283
			c0.3691,0,0.6406-0.3203,0.9453-1.0566l0.4961,0.1602c-0.3203,0.9443-0.8008,1.5039-1.5371,1.5039
			c-0.6875,0-1.168-0.4482-1.168-1.1201c0-0.0645,0-0.1445,0.0156-0.2236c-0.5762,0.7676-1.4082,1.376-2.4004,1.376
			c-1.457,0-2.5449-1.0723-2.5449-2.8008C72.9082,23.5293,74.6045,21.7051,76.4453,21.7051z M78.4297,24.5059
			c0-1.2324-0.7041-2.0488-1.9199-2.0488c-1.6172,0-2.7051,1.665-2.7051,3.4092c0,1.249,0.6719,2.0654,1.8242,2.0654
			C77.3261,27.9316,78.4297,26.0742,78.4297,24.5059z"/>
	</g>
	<g>
		<g>
			<g>
				<path class="st1" d="M0,39.1479h0.0488l3.8379,4.749l3.8145-4.749h0.0586v8.3232H7.0175v-6.4043l-3.1309,3.9336H3.8379
					l-3.0938-3.9336v6.4043H0V39.1479z"/>
				<path class="st1" d="M10.8496,47.4712h-0.7812L13.5,39.1235h0.0586l3.4434,8.3477h-0.8047l-0.5625-1.415h-4.2109
					L10.8496,47.4712z M13.5351,40.8389l-1.834,4.5215h3.6445C15.3574,45.3604,13.5351,40.8389,13.5351,40.8389z"/>
				<path class="st1" d="M20.0761,40.0112h-2.5312v-0.6953h5.8301v0.6953h-2.5195v7.46h-0.7793V40.0112z"/>
				<path class="st1" d="M27.4082,40.0112h-2.5312v-0.6953h5.8301v0.6953h-2.5195v7.46h-0.7793V40.0112z"/>
				<path class="st1" d="M38.1816,39.3159h0.7793v8.1553h-0.7793v-2.6865h-4.4492v2.6865h-0.7793v-8.1553h0.7793v4.7729h4.4492
					V39.3159z"/>
				<path class="st1" d="M41.9531,39.3159h4.918v0.6953h-4.1387v4.0776h3.6934v0.6836h-3.6934v2.0029h4.3066v0.6958h-5.0859V39.3159
					z"/>
				<path class="st1" d="M48.83,39.3159h0.8145l1.9922,6.3442l2.457-6.5366h0.0605l2.4707,6.5366l1.9785-6.3442h0.7676
					l-2.6855,8.311H56.625l-2.4941-6.6323l-2.543,6.6323H51.539L48.83,39.3159z"/>
				<path class="st1" d="M65.2324,39.1479h0.0488l3.8379,4.749l3.8125-4.749h0.0605v8.3232H72.248v-6.4043l-3.1289,3.9336h-0.0488
					l-3.0938-3.9336v6.4043h-0.7441V39.1479z"/>
				<path class="st1" d="M80.7968,39.3159h0.791v8.1553h-0.791V39.3159z"/>
				<path class="st1" d="M85.3554,41.0547v6.4165H84.623v-8.3232h0.0723l5.4941,6.584v-6.416h0.7305v8.3232h-0.0723L85.3554,41.0547
					z"/>
				<path class="st1" d="M93.9121,39.3159h4.918v0.6953h-4.1387v4.0776h3.6934v0.6836h-3.6934v2.0029h4.3066v0.6958h-5.0859V39.3159
					z"/>
				<path class="st1" d="M106.5683,47.4712h-0.9473l-1.6191-2.0869c-0.2148,0.0361-0.4316,0.0479-0.6719,0.0479h-0.9941v2.0391
					h-0.7812v-8.1553h1.7754c2.2188,0,3.3711,1.3071,3.3711,3.0703c0,1.3071-0.6484,2.3745-1.9082,2.8184L106.5683,47.4712z
					 M103.2832,44.7485c1.8594,0,2.6016-0.9951,2.6016-2.3623c0-1.3677-0.7559-2.375-2.6016-2.375h-0.9473v4.7373H103.2832z"/>
				<path class="st1" d="M110.0273,41.0547v6.4165h-0.7324v-8.3232h0.0723l5.4941,6.584v-6.416h0.7305v8.3232h-0.0723
					L110.0273,41.0547z"/>
				<path class="st1" d="M118.584,39.3159h4.918v0.6953h-4.1387v4.0776h3.6934v0.6836h-3.6934v2.0029h4.3066v0.6958h-5.0859V39.3159
					z"/>
				<path class="st1" d="M125.4492,39.3159h0.8633l2.625,4.8091l2.6152-4.8091h0.8164l-3.0469,5.6006v2.5547h-0.791v-2.5547
					L125.4492,39.3159z"/>
			</g>
		</g>
		<g>
			<path class="st1" d="M75.0649,41.4341c0-1.1875,0.8877-2.0752,2.0391-2.0752c0.6963,0,1.1875,0.228,1.5596,0.6357l-0.4922,0.4438
				c-0.252-0.2759-0.6113-0.4438-1.0674-0.4438c-0.7676,0-1.2715,0.624-1.2715,1.4395c0,0.8032,0.5039,1.4272,1.2715,1.4272
				c0.54,0,0.9121-0.2158,1.1641-0.4917l0.4912,0.4316c-0.3721,0.4438-0.9111,0.6953-1.6553,0.6953
				C75.9526,43.4966,75.0649,42.6094,75.0649,41.4341z"/>
		</g>
	</g>
	<g>
		<g>
			<path class="st1" d="M9.4228,6.4526c0.4326,0.8154,1.1748,1.2832,2.1348,1.2832c1.1162,0,1.7754-0.5518,1.7754-1.4028
				c0-0.8999-0.5518-1.3076-1.5352-1.7632l-0.6592-0.312C9.9629,3.7061,9.2549,3.1787,9.2549,2.0391
				c0-1.1631,0.8994-1.9429,2.0986-1.9429c1.0195,0,1.7275,0.3838,2.2305,1.1992l-0.5996,0.3838
				c-0.3711-0.6113-0.875-0.8994-1.6191-0.8994c-0.8027,0-1.3428,0.5156-1.3428,1.2354c0,0.7798,0.4443,1.0674,1.4395,1.5352
				l0.6592,0.312c1.3076,0.6235,1.9912,1.2231,1.9912,2.4463c0,1.3433-1.0195,2.1348-2.542,2.1348
				c-1.332,0-2.2793-0.6475-2.8066-1.6431L9.4228,6.4526z"/>
			<path class="st1" d="M16.8984,5.5771V0.1924h0.7803v5.3247c0,1.4751,0.8271,2.2188,2.0986,2.2188
				c1.2832,0,2.0996-0.7437,2.0996-2.2188V0.1924h0.7793v5.3848c0,1.895-1.2363,2.8662-2.8789,2.8662S16.8984,7.4722,16.8984,5.5771
				z"/>
			<path class="st1" d="M25.8506,6.4526c0.4326,0.8154,1.1748,1.2832,2.1348,1.2832c1.1162,0,1.7754-0.5518,1.7754-1.4028
				c0-0.8999-0.5518-1.3076-1.5352-1.7632l-0.6592-0.312c-1.1758-0.5518-1.8838-1.0791-1.8838-2.2188
				c0-1.1631,0.8994-1.9429,2.0986-1.9429c1.0195,0,1.7275,0.3838,2.2305,1.1992l-0.5996,0.3838
				c-0.3711-0.6113-0.875-0.8994-1.6191-0.8994c-0.8027,0-1.3428,0.5156-1.3428,1.2354c0,0.7798,0.4443,1.0674,1.4395,1.5352
				l0.6592,0.312C29.8564,4.4858,30.54,5.0854,30.54,6.3086c0,1.3433-1.0195,2.1348-2.542,2.1348
				c-1.332,0-2.2793-0.6475-2.8066-1.6431L25.8506,6.4526z"/>
			<path class="st1" d="M33.3633,8.3477H32.584L36.0136,0h0.0605l3.4414,8.3477h-0.8037l-0.5635-1.415h-4.21L33.3633,8.3477z
				 M36.0488,1.7153l-1.834,4.5215h3.6455C37.873,6.2368,36.0488,1.7153,36.0488,1.7153z"/>
			<path class="st1" d="M42.8535,1.9312v6.4165H42.123V0.0244h0.0713l5.4932,6.584v-6.416h0.7314v8.3232h-0.0713L42.8535,1.9312z"/>
			<path class="st1" d="M52.4414,1.9312v6.4165h-0.7305V0.0244h0.0713l5.4932,6.584v-6.416h0.7314v8.3232h-0.0713L52.4414,1.9312z"
				/>
			<path class="st1" d="M61.3945,8.3477h-0.7793L64.0449,0h0.0605l3.4414,8.3477h-0.8037l-0.5635-1.415h-4.21L61.3945,8.3477z
				 M64.08,1.7153l-1.834,4.5215h3.6455C65.9043,6.2368,64.08,1.7153,64.08,1.7153z"/>
			<path class="st1" d="M75.3828,0.1924h0.7803v8.1553h-0.7803V5.6611h-4.4492v2.6865h-0.7793V0.1924h0.7793v4.7729h4.4492V0.1924z"
				/>
			<path class="st1" d="M83.3183,0.1924h2.0391c2.6973,0,4.3047,1.667,4.3047,4.0776s-1.5947,4.0776-4.3047,4.0776h-2.0391V0.1924z
				 M85.2851,7.6401c2.4102,0,3.5615-1.3911,3.5615-3.3701s-1.1514-3.3701-3.5615-3.3701h-1.1875v6.7402H85.2851z"/>
			<path class="st1" d="M92.3896,5.5771V0.1924h0.7803v5.3247c0,1.4751,0.8262,2.2188,2.0977,2.2188
				c1.2832,0,2.0996-0.7437,2.0996-2.2188V0.1924h0.7793v5.3848c0,1.895-1.2354,2.8662-2.8789,2.8662
				C93.625,8.4434,92.3896,7.4722,92.3896,5.5771z"/>
			<path class="st1" d="M101.3418,6.4526c0.4316,0.8154,1.1758,1.2832,2.1348,1.2832c1.1152,0,1.7754-0.5518,1.7754-1.4028
				c0-0.8999-0.5518-1.3076-1.5352-1.7632l-0.6602-0.312c-1.1748-0.5518-1.8828-1.0791-1.8828-2.2188
				c0-1.1631,0.9004-1.9429,2.0996-1.9429c1.0195,0,1.7266,0.3838,2.2305,1.1992l-0.5996,0.3838
				c-0.3721-0.6113-0.876-0.8994-1.6191-0.8994c-0.8037,0-1.3438,0.5156-1.3438,1.2354c0,0.7798,0.4434,1.0674,1.4395,1.5352
				l0.6602,0.312c1.3066,0.6235,1.9902,1.2231,1.9902,2.4463c0,1.3433-1.0195,2.1348-2.543,2.1348
				c-1.3301,0-2.2783-0.6475-2.8066-1.6431L101.3418,6.4526z"/>
			<path class="st1" d="M108.2187,4.27c0-2.4229,1.8105-4.1738,4.125-4.1738c1.3789,0,2.4707,0.5635,3.2021,1.5229l-0.5996,0.4321
				c-0.6123-0.7915-1.4756-1.2476-2.6143-1.2476c-1.8945,0-3.2988,1.4873-3.2988,3.4663c0,2.0029,1.4277,3.4658,3.3584,3.4658
				c1.1748,0,2.123-0.4917,2.7705-1.355l0.6113,0.4316c-0.8027,1.0557-1.9424,1.6309-3.4062,1.6309
				C110.0293,8.4434,108.206,6.6924,108.2187,4.27z"/>
			<path class="st1" d="M123.6826,0.1924h0.7803v8.1553h-0.7803V5.6611h-4.4502v2.6865h-0.7793V0.1924h0.7793v4.7729h4.4502V0.1924z
				"/>
		</g>
	</g>
</g>
</svg>
